ply
format ascii 1.0
element vertex 13
property float x
property float y
property float z
property uchar red
property uchar green
property uchar blue
end_header
4.96623219 3.20141458 -15.60917639 0 0 255
2.62912596 4.96609722 -23.19269587 0 0 255
2.54932789 5.02179364 -23.12676212 0 0 255
4.17243299 3.68565869 -23.48742922 0 0 255
1.69035162 4.11719121 -24.87448225 0 0 255
6.23118218 -7.16894829 -13.9965504 0 0 255
4.06453946 2.20439841 -19.76076412 0 0 255
5.7416458 3.3231856 -14.82985759 0 0 255
-11.38399356 4.40008722 -20.42505319 0 0 255
-10.40954844 1.4776813 -19.06655438 0 0 255
-10.18353677 -7.22893007 -11.71406033 0 0 255
-1.77558527 15.45226247 -10.65712617 0 0 255
1.00629634 -8.50248632 -20.72304761 0 0 255
