<?xml version="1.0" encoding="utf-8" standalone="no"?>
<!DOCTYPE svg PUBLIC "-//W3C//DTD SVG 1.1//EN"
  "http://www.w3.org/Graphics/SVG/1.1/DTD/svg11.dtd">
<!-- Created with matplotlib (https://matplotlib.org/) -->
<svg height="360pt" version="1.1" viewBox="0 0 430.74 360" width="430.74pt" xmlns="http://www.w3.org/2000/svg" xmlns:xlink="http://www.w3.org/1999/xlink">
 <defs>
  <style type="text/css">
*{stroke-linecap:butt;stroke-linejoin:round;}
  </style>
 </defs>
 <g id="figure_1">
  <g id="patch_1">
   <path d="M 0 360 
L 430.74 360 
L 430.74 0 
L 0 0 
z
" style="fill:#ffffff;"/>
  </g>
  <g id="axes_1">
   <g id="patch_2">
    <path d="M 60.97364 318.04 
L 355.6926 318.04 
L 355.6926 13.32 
L 60.97364 13.32 
z
" style="fill:#ffffff;"/>
   </g>
   <g id="PathCollection_1">
    <defs>
     <path d="M 0 3 
C 0.795609 3 1.55874 2.683901 2.12132 2.12132 
C 2.683901 1.55874 3 0.795609 3 0 
C 3 -0.795609 2.683901 -1.55874 2.12132 -2.12132 
C 1.55874 -2.683901 0.795609 -3 0 -3 
C -0.795609 -3 -1.55874 -2.683901 -2.12132 -2.12132 
C -2.683901 -1.55874 -3 -0.795609 -3 0 
C -3 0.795609 -2.683901 1.55874 -2.12132 2.12132 
C -1.55874 2.683901 -0.795609 3 0 3 
z
" id="mff23528a2e" style="stroke:#1f77b4;stroke-opacity:0.8;"/>
    </defs>
    <g clip-path="url(#p213311a3ae)">
     <use style="fill:#1f77b4;fill-opacity:0.8;stroke:#1f77b4;stroke-opacity:0.8;" x="99.306483" xlink:href="#mff23528a2e" y="295.983969"/>
     <use style="fill:#1f77b4;fill-opacity:0.8;stroke:#1f77b4;stroke-opacity:0.8;" x="123.534625" xlink:href="#mff23528a2e" y="294.505645"/>
     <use style="fill:#1f77b4;fill-opacity:0.8;stroke:#1f77b4;stroke-opacity:0.8;" x="147.762766" xlink:href="#mff23528a2e" y="290.105081"/>
     <use style="fill:#1f77b4;fill-opacity:0.8;stroke:#1f77b4;stroke-opacity:0.8;" x="171.990908" xlink:href="#mff23528a2e" y="282.44689"/>
     <use style="fill:#1f77b4;fill-opacity:0.8;stroke:#1f77b4;stroke-opacity:0.8;" x="196.219049" xlink:href="#mff23528a2e" y="278.917466"/>
     <use style="fill:#1f77b4;fill-opacity:0.8;stroke:#1f77b4;stroke-opacity:0.8;" x="220.447191" xlink:href="#mff23528a2e" y="275.358424"/>
     <use style="fill:#1f77b4;fill-opacity:0.8;stroke:#1f77b4;stroke-opacity:0.8;" x="244.675332" xlink:href="#mff23528a2e" y="268.762152"/>
     <use style="fill:#1f77b4;fill-opacity:0.8;stroke:#1f77b4;stroke-opacity:0.8;" x="268.903474" xlink:href="#mff23528a2e" y="262.813572"/>
     <use style="fill:#1f77b4;fill-opacity:0.8;stroke:#1f77b4;stroke-opacity:0.8;" x="293.131615" xlink:href="#mff23528a2e" y="257.061435"/>
     <use style="fill:#1f77b4;fill-opacity:0.8;stroke:#1f77b4;stroke-opacity:0.8;" x="317.359757" xlink:href="#mff23528a2e" y="251.488317"/>
    </g>
   </g>
   <g id="PolyCollection_1">
    <path clip-path="url(#p213311a3ae)" d="M 86.548426 299.413729 
L 86.548426 304.189091 
L 89.008723 303.636194 
L 91.469019 303.083297 
L 93.929316 302.5304 
L 96.389613 301.977503 
L 98.84991 301.424606 
L 101.310207 300.871709 
L 103.770504 300.318812 
L 106.230801 299.765915 
L 108.691097 299.213018 
L 111.151394 298.660121 
L 113.611691 298.107224 
L 116.071988 297.55442 
L 118.532285 297.001871 
L 120.992582 296.449323 
L 123.452879 295.896774 
L 125.913175 295.344001 
L 128.373472 294.791039 
L 130.833769 294.238077 
L 133.294066 293.683687 
L 135.754363 293.122726 
L 138.21466 292.561709 
L 140.674957 292.000526 
L 143.135253 291.454296 
L 145.59555 290.892775 
L 148.055847 290.33112 
L 150.516144 289.769466 
L 152.976441 289.207811 
L 155.436738 288.652472 
L 157.897035 288.092455 
L 160.357331 287.530517 
L 162.817628 286.968578 
L 165.277925 286.409787 
L 167.738222 285.855452 
L 170.198519 285.301117 
L 172.658816 284.746781 
L 175.119112 284.192446 
L 177.579409 283.647081 
L 180.039706 283.106286 
L 182.500003 282.558432 
L 184.9603 282.004756 
L 187.420597 281.451079 
L 189.880894 280.911278 
L 192.34119 280.385208 
L 194.801487 279.819082 
L 197.261784 279.267898 
L 199.722081 278.749811 
L 202.182378 278.194779 
L 204.642675 277.667471 
L 207.102972 277.161143 
L 209.563268 276.633068 
L 212.023565 276.08848 
L 214.483862 275.574043 
L 216.944159 275.073082 
L 219.404456 274.539603 
L 221.864753 274.024203 
L 224.32505 273.506473 
L 226.785346 273.002798 
L 229.245643 272.470465 
L 231.70594 271.965997 
L 234.166237 271.469323 
L 236.626534 270.953669 
L 239.086831 270.444268 
L 241.547128 269.964165 
L 244.007424 269.473811 
L 246.467721 268.98694 
L 248.928018 268.490768 
L 251.388315 267.994597 
L 253.848612 267.498426 
L 256.308909 267.002255 
L 258.769205 266.506084 
L 261.229502 266.015133 
L 263.689799 265.545533 
L 266.150096 265.075933 
L 268.610393 264.606333 
L 271.07069 264.118303 
L 273.530987 263.627109 
L 275.991283 263.138161 
L 278.45158 262.644486 
L 280.911877 262.153318 
L 283.372174 261.661853 
L 285.832471 261.170387 
L 288.292768 260.683371 
L 290.753065 260.188747 
L 293.213361 259.698079 
L 295.673658 259.207411 
L 298.133955 258.718911 
L 300.594252 258.247748 
L 303.054549 257.776586 
L 305.514846 257.305423 
L 307.975143 256.83426 
L 310.435439 256.363097 
L 312.895736 255.891934 
L 315.356033 255.420772 
L 317.81633 254.949609 
L 320.276627 254.474562 
L 322.736924 253.991045 
L 325.197221 253.507528 
L 327.657517 253.023755 
L 330.117814 252.539908 
L 330.117814 248.824863 
L 330.117814 248.824863 
L 327.657517 249.377189 
L 325.197221 249.916556 
L 322.736924 250.473228 
L 320.276627 251.032362 
L 317.81633 251.585619 
L 315.356033 252.13586 
L 312.895736 252.68519 
L 310.435439 253.235554 
L 307.975143 253.78317 
L 305.514846 254.327106 
L 303.054549 254.881374 
L 300.594252 255.430073 
L 298.133955 255.978655 
L 295.673658 256.521348 
L 293.213361 257.059711 
L 290.753065 257.597081 
L 288.292768 258.134569 
L 285.832471 258.674656 
L 283.372174 259.209585 
L 280.911877 259.747 
L 278.45158 260.280539 
L 275.991283 260.817455 
L 273.530987 261.345852 
L 271.07069 261.879248 
L 268.610393 262.40445 
L 266.150096 262.917538 
L 263.689799 263.439893 
L 261.229502 263.957853 
L 258.769205 264.470089 
L 256.308909 264.984624 
L 253.848612 265.496182 
L 251.388315 266.008105 
L 248.928018 266.516135 
L 246.467721 267.024124 
L 244.007424 267.535014 
L 241.547128 268.046241 
L 239.086831 268.55671 
L 236.626534 269.063515 
L 234.166237 269.572276 
L 231.70594 270.074937 
L 229.245643 270.577376 
L 226.785346 271.080175 
L 224.32505 271.586305 
L 221.864753 272.096365 
L 219.404456 272.60654 
L 216.944159 273.104191 
L 214.483862 273.615367 
L 212.023565 274.119707 
L 209.563268 274.624131 
L 207.102972 275.128555 
L 204.642675 275.63298 
L 202.182378 276.137404 
L 199.722081 276.644506 
L 197.261784 277.152139 
L 194.801487 277.659772 
L 192.34119 278.158279 
L 189.880894 278.66957 
L 187.420597 279.180892 
L 184.9603 279.690305 
L 182.500003 280.191336 
L 180.039706 280.697381 
L 177.579409 281.196822 
L 175.119112 281.705789 
L 172.658816 282.197336 
L 170.198519 282.701668 
L 167.738222 283.198093 
L 165.277925 283.695225 
L 162.817628 284.195361 
L 160.357331 284.695667 
L 157.897035 285.196223 
L 155.436738 285.696929 
L 152.976441 286.195269 
L 150.516144 286.691334 
L 148.055847 287.190211 
L 145.59555 287.684438 
L 143.135253 288.169619 
L 140.674957 288.671512 
L 138.21466 289.173872 
L 135.754363 289.651473 
L 133.294066 290.141034 
L 130.833769 290.637642 
L 128.373472 291.140316 
L 125.913175 291.643198 
L 123.452879 292.144675 
L 120.992582 292.616309 
L 118.532285 293.09903 
L 116.071988 293.599201 
L 113.611691 294.080616 
L 111.151394 294.560766 
L 108.691097 295.042125 
L 106.230801 295.531795 
L 103.770504 296.021731 
L 101.310207 296.500844 
L 98.84991 296.97744 
L 96.389613 297.468393 
L 93.929316 297.932241 
L 91.469019 298.411628 
L 89.008723 298.918209 
L 86.548426 299.413729 
z
" style="fill:#1f77b4;fill-opacity:0.15;"/>
   </g>
   <g id="PathCollection_2">
    <defs>
     <path d="M 0 3 
C 0.795609 3 1.55874 2.683901 2.12132 2.12132 
C 2.683901 1.55874 3 0.795609 3 0 
C 3 -0.795609 2.683901 -1.55874 2.12132 -2.12132 
C 1.55874 -2.683901 0.795609 -3 0 -3 
C -0.795609 -3 -1.55874 -2.683901 -2.12132 -2.12132 
C -2.683901 -1.55874 -3 -0.795609 -3 0 
C -3 0.795609 -2.683901 1.55874 -2.12132 2.12132 
C -1.55874 2.683901 -0.795609 3 0 3 
z
" id="m13ea1a15f8" style="stroke:#ff7f0e;stroke-opacity:0.8;"/>
    </defs>
    <g clip-path="url(#p213311a3ae)">
     <use style="fill:#ff7f0e;fill-opacity:0.8;stroke:#ff7f0e;stroke-opacity:0.8;" x="99.306483" xlink:href="#m13ea1a15f8" y="208.965797"/>
     <use style="fill:#ff7f0e;fill-opacity:0.8;stroke:#ff7f0e;stroke-opacity:0.8;" x="123.534625" xlink:href="#m13ea1a15f8" y="205.619313"/>
     <use style="fill:#ff7f0e;fill-opacity:0.8;stroke:#ff7f0e;stroke-opacity:0.8;" x="147.762766" xlink:href="#m13ea1a15f8" y="196.91706"/>
     <use style="fill:#ff7f0e;fill-opacity:0.8;stroke:#ff7f0e;stroke-opacity:0.8;" x="171.990908" xlink:href="#m13ea1a15f8" y="181.29752"/>
     <use style="fill:#ff7f0e;fill-opacity:0.8;stroke:#ff7f0e;stroke-opacity:0.8;" x="196.219049" xlink:href="#m13ea1a15f8" y="174.141105"/>
     <use style="fill:#ff7f0e;fill-opacity:0.8;stroke:#ff7f0e;stroke-opacity:0.8;" x="220.447191" xlink:href="#m13ea1a15f8" y="167.411549"/>
     <use style="fill:#ff7f0e;fill-opacity:0.8;stroke:#ff7f0e;stroke-opacity:0.8;" x="244.675332" xlink:href="#m13ea1a15f8" y="154.736462"/>
     <use style="fill:#ff7f0e;fill-opacity:0.8;stroke:#ff7f0e;stroke-opacity:0.8;" x="268.903474" xlink:href="#m13ea1a15f8" y="142.906382"/>
     <use style="fill:#ff7f0e;fill-opacity:0.8;stroke:#ff7f0e;stroke-opacity:0.8;" x="293.131615" xlink:href="#m13ea1a15f8" y="131.877749"/>
     <use style="fill:#ff7f0e;fill-opacity:0.8;stroke:#ff7f0e;stroke-opacity:0.8;" x="317.359757" xlink:href="#m13ea1a15f8" y="121.532962"/>
    </g>
   </g>
   <g id="PolyCollection_2">
    <path clip-path="url(#p213311a3ae)" d="M 74.369956 219.916748 
L 74.369956 229.500589 
L 77.076283 228.305025 
L 79.782609 227.108793 
L 82.488936 225.912437 
L 85.195263 224.71595 
L 87.901589 223.519464 
L 90.607916 222.322977 
L 93.314242 221.124152 
L 96.020569 219.928531 
L 98.726895 218.733789 
L 101.433222 217.537456 
L 104.139548 216.341123 
L 106.845875 215.144791 
L 109.552201 213.948255 
L 112.258528 212.745664 
L 114.964854 211.541694 
L 117.671181 210.337723 
L 120.377508 209.133753 
L 123.083834 207.929783 
L 125.790161 206.725812 
L 128.496487 205.521842 
L 131.202814 204.321419 
L 133.90914 203.121224 
L 136.615467 201.921029 
L 139.321793 200.720834 
L 142.02812 199.531421 
L 144.734446 198.343766 
L 147.440773 197.156035 
L 150.147099 195.968276 
L 152.853426 194.780517 
L 155.559753 193.592758 
L 158.266079 192.39378 
L 160.972406 191.193523 
L 163.678732 189.993068 
L 166.385059 188.792613 
L 169.091385 187.595859 
L 171.797712 186.408662 
L 174.504038 185.220072 
L 177.210365 184.014198 
L 179.916691 182.808184 
L 182.623018 181.602072 
L 185.329344 180.426299 
L 188.035671 179.241108 
L 190.741998 178.06173 
L 193.448324 176.911693 
L 196.154651 175.743049 
L 198.860977 174.551057 
L 201.567304 173.390889 
L 204.27363 172.219218 
L 206.979957 171.046726 
L 209.686283 169.873608 
L 212.39261 168.72663 
L 215.098936 167.554336 
L 217.805263 166.42477 
L 220.511589 165.310792 
L 223.217916 164.23544 
L 225.924242 163.158256 
L 228.630569 162.069863 
L 231.336896 161.00592 
L 234.043222 159.949762 
L 236.749549 158.88644 
L 239.455875 157.787041 
L 242.162202 156.736198 
L 244.868528 155.66162 
L 247.574855 154.586996 
L 250.281181 153.512373 
L 252.987508 152.437749 
L 255.693834 151.363125 
L 258.400161 150.30825 
L 261.106487 149.287017 
L 263.812814 148.265183 
L 266.519141 147.209604 
L 269.225467 146.119979 
L 271.931794 145.069041 
L 274.63812 144.03686 
L 277.344447 142.971157 
L 280.050773 141.934157 
L 282.7571 140.897026 
L 285.463426 139.859895 
L 288.169753 138.822765 
L 290.876079 137.776887 
L 293.582406 136.72124 
L 296.288732 135.682753 
L 298.995059 134.657826 
L 301.701386 133.622398 
L 304.407712 132.597937 
L 307.114039 131.566147 
L 309.820365 130.529805 
L 312.526692 129.493462 
L 315.233018 128.45712 
L 317.939345 127.420777 
L 320.645671 126.384434 
L 323.351998 125.348092 
L 326.058324 124.311749 
L 328.764651 123.275407 
L 331.470977 122.239064 
L 334.177304 121.202721 
L 336.883631 120.166379 
L 339.589957 119.130036 
L 342.296284 118.093675 
L 342.296284 110.608849 
L 342.296284 110.608849 
L 339.589957 111.800987 
L 336.883631 112.993655 
L 334.177304 114.179658 
L 331.470977 115.364176 
L 328.764651 116.550028 
L 326.058324 117.731637 
L 323.351998 118.910197 
L 320.645671 120.110681 
L 317.939345 121.29694 
L 315.233018 122.48914 
L 312.526692 123.674861 
L 309.820365 124.854554 
L 307.114039 126.03433 
L 304.407712 127.209989 
L 301.701386 128.391105 
L 298.995059 129.549257 
L 296.288732 130.720537 
L 293.582406 131.893067 
L 290.876079 133.060354 
L 288.169753 134.204802 
L 285.463426 135.336238 
L 282.7571 136.485381 
L 280.050773 137.617129 
L 277.344447 138.744993 
L 274.63812 139.861992 
L 271.931794 140.989 
L 269.225467 142.107131 
L 266.519141 143.235897 
L 263.812814 144.355345 
L 261.106487 145.477695 
L 258.400161 146.577243 
L 255.693834 147.678054 
L 252.987508 148.774506 
L 250.281181 149.907091 
L 247.574855 151.007152 
L 244.868528 152.114662 
L 242.162202 153.215258 
L 239.455875 154.29953 
L 236.749549 155.400338 
L 234.043222 156.501146 
L 231.336896 157.601979 
L 228.630569 158.693901 
L 225.924242 159.798298 
L 223.217916 160.890055 
L 220.511589 161.982638 
L 217.805263 163.080995 
L 215.098936 164.167917 
L 212.39261 165.269105 
L 209.686283 166.377717 
L 206.979957 167.461147 
L 204.27363 168.552455 
L 201.567304 169.64929 
L 198.860977 170.755123 
L 196.154651 171.842162 
L 193.448324 172.931912 
L 190.741998 174.0355 
L 188.035671 175.132371 
L 185.329344 176.21595 
L 182.623018 177.295068 
L 179.916691 178.363432 
L 177.210365 179.431796 
L 174.504038 180.508564 
L 171.797712 181.597313 
L 169.091385 182.671935 
L 166.385059 183.748457 
L 163.678732 184.820621 
L 160.972406 185.901269 
L 158.266079 186.987632 
L 155.559753 188.073995 
L 152.853426 189.160358 
L 150.147099 190.215655 
L 147.440773 191.272726 
L 144.734446 192.354869 
L 142.02812 193.435578 
L 139.321793 194.488271 
L 136.615467 195.563408 
L 133.90914 196.651431 
L 131.202814 197.711921 
L 128.496487 198.785615 
L 125.790161 199.839517 
L 123.083834 200.900679 
L 120.377508 201.952239 
L 117.671181 203.042932 
L 114.964854 204.128901 
L 112.258528 205.18168 
L 109.552201 206.204822 
L 106.845875 207.237004 
L 104.139548 208.305205 
L 101.433222 209.395077 
L 98.726895 210.44528 
L 96.020569 211.480635 
L 93.314242 212.548415 
L 90.607916 213.566231 
L 87.901589 214.571533 
L 85.195263 215.633542 
L 82.488936 216.702036 
L 79.782609 217.775466 
L 77.076283 218.84651 
L 74.369956 219.916748 
z
" style="fill:#ff7f0e;fill-opacity:0.15;"/>
   </g>
   <g id="PathCollection_3">
    <defs>
     <path d="M 0 3 
C 0.795609 3 1.55874 2.683901 2.12132 2.12132 
C 2.683901 1.55874 3 0.795609 3 0 
C 3 -0.795609 2.683901 -1.55874 2.12132 -2.12132 
C 1.55874 -2.683901 0.795609 -3 0 -3 
C -0.795609 -3 -1.55874 -2.683901 -2.12132 -2.12132 
C -2.683901 -1.55874 -3 -0.795609 -3 0 
C -3 0.795609 -2.683901 1.55874 -2.12132 2.12132 
C -1.55874 2.683901 -0.795609 3 0 3 
z
" id="m857616bfc9" style="stroke:#2ca02c;stroke-opacity:0.8;"/>
    </defs>
    <g clip-path="url(#p213311a3ae)">
     <use style="fill:#2ca02c;fill-opacity:0.8;stroke:#2ca02c;stroke-opacity:0.8;" x="99.306483" xlink:href="#m857616bfc9" y="157.998882"/>
     <use style="fill:#2ca02c;fill-opacity:0.8;stroke:#2ca02c;stroke-opacity:0.8;" x="123.534625" xlink:href="#m857616bfc9" y="154.022128"/>
     <use style="fill:#2ca02c;fill-opacity:0.8;stroke:#2ca02c;stroke-opacity:0.8;" x="147.762766" xlink:href="#m857616bfc9" y="143.259193"/>
     <use style="fill:#2ca02c;fill-opacity:0.8;stroke:#2ca02c;stroke-opacity:0.8;" x="171.990908" xlink:href="#m857616bfc9" y="123.989577"/>
     <use style="fill:#2ca02c;fill-opacity:0.8;stroke:#2ca02c;stroke-opacity:0.8;" x="196.219049" xlink:href="#m857616bfc9" y="114.955855"/>
     <use style="fill:#2ca02c;fill-opacity:0.8;stroke:#2ca02c;stroke-opacity:0.8;" x="220.447191" xlink:href="#m857616bfc9" y="106.2401"/>
     <use style="fill:#2ca02c;fill-opacity:0.8;stroke:#2ca02c;stroke-opacity:0.8;" x="244.675332" xlink:href="#m857616bfc9" y="89.993339"/>
     <use style="fill:#2ca02c;fill-opacity:0.8;stroke:#2ca02c;stroke-opacity:0.8;" x="268.903474" xlink:href="#m857616bfc9" y="74.922618"/>
     <use style="fill:#2ca02c;fill-opacity:0.8;stroke:#2ca02c;stroke-opacity:0.8;" x="293.131615" xlink:href="#m857616bfc9" y="61.167318"/>
     <use style="fill:#2ca02c;fill-opacity:0.8;stroke:#2ca02c;stroke-opacity:0.8;" x="317.359757" xlink:href="#m857616bfc9" y="49.014915"/>
    </g>
   </g>
   <g id="PolyCollection_3">
    <path clip-path="url(#p213311a3ae)" d="M 60.97364 178.572366 
L 60.97364 191.683449 
L 63.950599 190.026932 
L 66.927558 188.370414 
L 69.904518 186.713896 
L 72.881477 185.057379 
L 75.858436 183.400861 
L 78.835395 181.744344 
L 81.812354 180.087826 
L 84.789314 178.431308 
L 87.766273 176.774791 
L 90.743232 175.110063 
L 93.720191 173.443943 
L 96.69715 171.777823 
L 99.674109 170.121225 
L 102.651069 168.46971 
L 105.628028 166.818194 
L 108.604987 165.166679 
L 111.581946 163.515163 
L 114.558905 161.863648 
L 117.535865 160.212106 
L 120.512824 158.555963 
L 123.489783 156.899819 
L 126.466742 155.243676 
L 129.443701 153.587533 
L 132.420661 151.93139 
L 135.39762 150.274856 
L 138.374579 148.618306 
L 141.351538 146.953012 
L 144.328497 145.30311 
L 147.305457 143.649589 
L 150.282416 141.993523 
L 153.259375 140.337458 
L 156.236334 138.681393 
L 159.213293 137.025328 
L 162.190253 135.36925 
L 165.167212 133.712533 
L 168.144171 132.055816 
L 171.12113 130.394438 
L 174.098089 128.741053 
L 177.075048 127.082587 
L 180.052008 125.415153 
L 183.028967 123.768836 
L 186.005926 122.09498 
L 188.982885 120.442588 
L 191.959844 118.77381 
L 194.936804 117.171392 
L 197.913763 115.538968 
L 200.890722 113.899836 
L 203.867681 112.309644 
L 206.84464 110.670795 
L 209.8216 109.145286 
L 212.798559 107.529465 
L 215.775518 105.937359 
L 218.752477 104.306744 
L 221.729436 102.814262 
L 224.706396 101.264311 
L 227.683355 99.811355 
L 230.660314 98.322209 
L 233.637273 96.808023 
L 236.614232 95.338837 
L 239.591192 93.895082 
L 242.568151 92.45766 
L 245.54511 91.009706 
L 248.522069 89.55824 
L 251.499028 88.107601 
L 254.475987 86.658182 
L 257.452947 85.208763 
L 260.429906 83.759344 
L 263.406865 82.309414 
L 266.383824 80.859412 
L 269.360783 79.40941 
L 272.337743 77.959409 
L 275.314702 76.509407 
L 278.291661 75.059405 
L 281.26862 73.609403 
L 284.245579 72.159401 
L 287.222539 70.709399 
L 290.199498 69.259358 
L 293.176457 67.809242 
L 296.153416 66.359127 
L 299.130375 64.930207 
L 302.107335 63.494854 
L 305.084294 62.038871 
L 308.061253 60.582579 
L 311.038212 59.126286 
L 314.015171 57.669994 
L 316.992131 56.224452 
L 319.96909 54.763258 
L 322.946049 53.309069 
L 325.923008 51.859301 
L 328.899967 50.409374 
L 331.876926 48.973601 
L 334.853886 47.542281 
L 337.830845 46.092584 
L 340.807804 44.641249 
L 343.784763 43.18971 
L 346.761722 41.738083 
L 349.738682 40.301416 
L 352.715641 38.887608 
L 355.6926 37.430293 
L 355.6926 27.170909 
L 355.6926 27.170909 
L 352.715641 28.823693 
L 349.738682 30.480135 
L 346.761722 32.136577 
L 343.784763 33.76124 
L 340.807804 35.400992 
L 337.830845 37.039729 
L 334.853886 38.693288 
L 331.876926 40.34611 
L 328.899967 41.997053 
L 325.923008 43.649134 
L 322.946049 45.301435 
L 319.96909 46.951285 
L 316.992131 48.579908 
L 314.015171 50.227877 
L 311.038212 51.867062 
L 308.061253 53.499467 
L 305.084294 55.154319 
L 302.107335 56.79232 
L 299.130375 58.409211 
L 296.153416 60.06711 
L 293.176457 61.701189 
L 290.199498 63.309995 
L 287.222539 64.923246 
L 284.245579 66.529897 
L 281.26862 68.115565 
L 278.291661 69.684283 
L 275.314702 71.275905 
L 272.337743 72.818681 
L 269.360783 74.370829 
L 266.383824 75.918009 
L 263.406865 77.487223 
L 260.429906 79.043377 
L 257.452947 80.572448 
L 254.475987 82.110625 
L 251.499028 83.632711 
L 248.522069 85.153459 
L 245.54511 86.676381 
L 242.568151 88.201505 
L 239.591192 89.733539 
L 236.614232 91.251823 
L 233.637273 92.76984 
L 230.660314 94.289502 
L 227.683355 95.803641 
L 224.706396 97.313835 
L 221.729436 98.816444 
L 218.752477 100.334016 
L 215.775518 101.844141 
L 212.798559 103.353683 
L 209.8216 104.856817 
L 206.84464 106.360862 
L 203.867681 107.870974 
L 200.890722 109.382705 
L 197.913763 110.872507 
L 194.936804 112.361818 
L 191.959844 113.851373 
L 188.982885 115.381614 
L 186.005926 116.87019 
L 183.028967 118.374317 
L 180.052008 119.818339 
L 177.075048 121.29774 
L 174.098089 122.787344 
L 171.12113 124.275672 
L 168.144171 125.748987 
L 165.167212 127.255463 
L 162.190253 128.744617 
L 159.213293 130.234364 
L 156.236334 131.724112 
L 153.259375 133.21386 
L 150.282416 134.703608 
L 147.305457 136.201066 
L 144.328497 137.696233 
L 141.351538 139.177046 
L 138.374579 140.657664 
L 135.39762 142.15064 
L 132.420661 143.637313 
L 129.443701 145.11979 
L 126.466742 146.602267 
L 123.489783 148.06016 
L 120.512824 149.541134 
L 117.535865 151.019522 
L 114.558905 152.496312 
L 111.581946 153.958808 
L 108.604987 155.404279 
L 105.628028 156.84894 
L 102.651069 158.288311 
L 99.674109 159.732698 
L 96.69715 161.15084 
L 93.720191 162.607782 
L 90.743232 164.067465 
L 87.766273 165.510945 
L 84.789314 166.944628 
L 81.812354 168.377548 
L 78.835395 169.842616 
L 75.858436 171.287798 
L 72.881477 172.731975 
L 69.904518 174.17633 
L 66.927558 175.63763 
L 63.950599 177.104553 
L 60.97364 178.572366 
z
" style="fill:#2ca02c;fill-opacity:0.15;"/>
   </g>
   <g id="matplotlib.axis_1">
    <g id="xtick_1">
     <g id="line2d_1">
      <defs>
       <path d="M 0 0 
L 0 3.5 
" id="m8ceb652344" style="stroke:#000000;stroke-width:0.8;"/>
      </defs>
      <g>
       <use style="stroke:#000000;stroke-width:0.8;" x="99.306483" xlink:href="#m8ceb652344" y="318.04"/>
      </g>
     </g>
     <g id="text_1">
      <!-- 10 -->
      <defs>
       <path d="M 12.40625 8.296875 
L 28.515625 8.296875 
L 28.515625 63.921875 
L 10.984375 60.40625 
L 10.984375 69.390625 
L 28.421875 72.90625 
L 38.28125 72.90625 
L 38.28125 8.296875 
L 54.390625 8.296875 
L 54.390625 0 
L 12.40625 0 
z
" id="DejaVuSans-49"/>
       <path d="M 31.78125 66.40625 
Q 24.171875 66.40625 20.328125 58.90625 
Q 16.5 51.421875 16.5 36.375 
Q 16.5 21.390625 20.328125 13.890625 
Q 24.171875 6.390625 31.78125 6.390625 
Q 39.453125 6.390625 43.28125 13.890625 
Q 47.125 21.390625 47.125 36.375 
Q 47.125 51.421875 43.28125 58.90625 
Q 39.453125 66.40625 31.78125 66.40625 
z
M 31.78125 74.21875 
Q 44.046875 74.21875 50.515625 64.515625 
Q 56.984375 54.828125 56.984375 36.375 
Q 56.984375 17.96875 50.515625 8.265625 
Q 44.046875 -1.421875 31.78125 -1.421875 
Q 19.53125 -1.421875 13.0625 8.265625 
Q 6.59375 17.96875 6.59375 36.375 
Q 6.59375 54.828125 13.0625 64.515625 
Q 19.53125 74.21875 31.78125 74.21875 
z
" id="DejaVuSans-48"/>
      </defs>
      <g transform="translate(92.943983 332.638438)scale(0.1 -0.1)">
       <use xlink:href="#DejaVuSans-49"/>
       <use x="63.623047" xlink:href="#DejaVuSans-48"/>
      </g>
     </g>
    </g>
    <g id="xtick_2">
     <g id="line2d_2">
      <g>
       <use style="stroke:#000000;stroke-width:0.8;" x="147.762766" xlink:href="#m8ceb652344" y="318.04"/>
      </g>
     </g>
     <g id="text_2">
      <!-- 12 -->
      <defs>
       <path d="M 19.1875 8.296875 
L 53.609375 8.296875 
L 53.609375 0 
L 7.328125 0 
L 7.328125 8.296875 
Q 12.9375 14.109375 22.625 23.890625 
Q 32.328125 33.6875 34.8125 36.53125 
Q 39.546875 41.84375 41.421875 45.53125 
Q 43.3125 49.21875 43.3125 52.78125 
Q 43.3125 58.59375 39.234375 62.25 
Q 35.15625 65.921875 28.609375 65.921875 
Q 23.96875 65.921875 18.8125 64.3125 
Q 13.671875 62.703125 7.8125 59.421875 
L 7.8125 69.390625 
Q 13.765625 71.78125 18.9375 73 
Q 24.125 74.21875 28.421875 74.21875 
Q 39.75 74.21875 46.484375 68.546875 
Q 53.21875 62.890625 53.21875 53.421875 
Q 53.21875 48.921875 51.53125 44.890625 
Q 49.859375 40.875 45.40625 35.40625 
Q 44.1875 33.984375 37.640625 27.21875 
Q 31.109375 20.453125 19.1875 8.296875 
z
" id="DejaVuSans-50"/>
      </defs>
      <g transform="translate(141.400266 332.638438)scale(0.1 -0.1)">
       <use xlink:href="#DejaVuSans-49"/>
       <use x="63.623047" xlink:href="#DejaVuSans-50"/>
      </g>
     </g>
    </g>
    <g id="xtick_3">
     <g id="line2d_3">
      <g>
       <use style="stroke:#000000;stroke-width:0.8;" x="196.219049" xlink:href="#m8ceb652344" y="318.04"/>
      </g>
     </g>
     <g id="text_3">
      <!-- 14 -->
      <defs>
       <path d="M 37.796875 64.3125 
L 12.890625 25.390625 
L 37.796875 25.390625 
z
M 35.203125 72.90625 
L 47.609375 72.90625 
L 47.609375 25.390625 
L 58.015625 25.390625 
L 58.015625 17.1875 
L 47.609375 17.1875 
L 47.609375 0 
L 37.796875 0 
L 37.796875 17.1875 
L 4.890625 17.1875 
L 4.890625 26.703125 
z
" id="DejaVuSans-52"/>
      </defs>
      <g transform="translate(189.856549 332.638438)scale(0.1 -0.1)">
       <use xlink:href="#DejaVuSans-49"/>
       <use x="63.623047" xlink:href="#DejaVuSans-52"/>
      </g>
     </g>
    </g>
    <g id="xtick_4">
     <g id="line2d_4">
      <g>
       <use style="stroke:#000000;stroke-width:0.8;" x="244.675332" xlink:href="#m8ceb652344" y="318.04"/>
      </g>
     </g>
     <g id="text_4">
      <!-- 16 -->
      <defs>
       <path d="M 33.015625 40.375 
Q 26.375 40.375 22.484375 35.828125 
Q 18.609375 31.296875 18.609375 23.390625 
Q 18.609375 15.53125 22.484375 10.953125 
Q 26.375 6.390625 33.015625 6.390625 
Q 39.65625 6.390625 43.53125 10.953125 
Q 47.40625 15.53125 47.40625 23.390625 
Q 47.40625 31.296875 43.53125 35.828125 
Q 39.65625 40.375 33.015625 40.375 
z
M 52.59375 71.296875 
L 52.59375 62.3125 
Q 48.875 64.0625 45.09375 64.984375 
Q 41.3125 65.921875 37.59375 65.921875 
Q 27.828125 65.921875 22.671875 59.328125 
Q 17.53125 52.734375 16.796875 39.40625 
Q 19.671875 43.65625 24.015625 45.921875 
Q 28.375 48.1875 33.59375 48.1875 
Q 44.578125 48.1875 50.953125 41.515625 
Q 57.328125 34.859375 57.328125 23.390625 
Q 57.328125 12.15625 50.6875 5.359375 
Q 44.046875 -1.421875 33.015625 -1.421875 
Q 20.359375 -1.421875 13.671875 8.265625 
Q 6.984375 17.96875 6.984375 36.375 
Q 6.984375 53.65625 15.1875 63.9375 
Q 23.390625 74.21875 37.203125 74.21875 
Q 40.921875 74.21875 44.703125 73.484375 
Q 48.484375 72.75 52.59375 71.296875 
z
" id="DejaVuSans-54"/>
      </defs>
      <g transform="translate(238.312832 332.638438)scale(0.1 -0.1)">
       <use xlink:href="#DejaVuSans-49"/>
       <use x="63.623047" xlink:href="#DejaVuSans-54"/>
      </g>
     </g>
    </g>
    <g id="xtick_5">
     <g id="line2d_5">
      <g>
       <use style="stroke:#000000;stroke-width:0.8;" x="293.131615" xlink:href="#m8ceb652344" y="318.04"/>
      </g>
     </g>
     <g id="text_5">
      <!-- 18 -->
      <defs>
       <path d="M 31.78125 34.625 
Q 24.75 34.625 20.71875 30.859375 
Q 16.703125 27.09375 16.703125 20.515625 
Q 16.703125 13.921875 20.71875 10.15625 
Q 24.75 6.390625 31.78125 6.390625 
Q 38.8125 6.390625 42.859375 10.171875 
Q 46.921875 13.96875 46.921875 20.515625 
Q 46.921875 27.09375 42.890625 30.859375 
Q 38.875 34.625 31.78125 34.625 
z
M 21.921875 38.8125 
Q 15.578125 40.375 12.03125 44.71875 
Q 8.5 49.078125 8.5 55.328125 
Q 8.5 64.0625 14.71875 69.140625 
Q 20.953125 74.21875 31.78125 74.21875 
Q 42.671875 74.21875 48.875 69.140625 
Q 55.078125 64.0625 55.078125 55.328125 
Q 55.078125 49.078125 51.53125 44.71875 
Q 48 40.375 41.703125 38.8125 
Q 48.828125 37.15625 52.796875 32.3125 
Q 56.78125 27.484375 56.78125 20.515625 
Q 56.78125 9.90625 50.3125 4.234375 
Q 43.84375 -1.421875 31.78125 -1.421875 
Q 19.734375 -1.421875 13.25 4.234375 
Q 6.78125 9.90625 6.78125 20.515625 
Q 6.78125 27.484375 10.78125 32.3125 
Q 14.796875 37.15625 21.921875 38.8125 
z
M 18.3125 54.390625 
Q 18.3125 48.734375 21.84375 45.5625 
Q 25.390625 42.390625 31.78125 42.390625 
Q 38.140625 42.390625 41.71875 45.5625 
Q 45.3125 48.734375 45.3125 54.390625 
Q 45.3125 60.0625 41.71875 63.234375 
Q 38.140625 66.40625 31.78125 66.40625 
Q 25.390625 66.40625 21.84375 63.234375 
Q 18.3125 60.0625 18.3125 54.390625 
z
" id="DejaVuSans-56"/>
      </defs>
      <g transform="translate(286.769115 332.638438)scale(0.1 -0.1)">
       <use xlink:href="#DejaVuSans-49"/>
       <use x="63.623047" xlink:href="#DejaVuSans-56"/>
      </g>
     </g>
    </g>
    <g id="xtick_6">
     <g id="line2d_6">
      <g>
       <use style="stroke:#000000;stroke-width:0.8;" x="341.587899" xlink:href="#m8ceb652344" y="318.04"/>
      </g>
     </g>
     <g id="text_6">
      <!-- 20 -->
      <g transform="translate(335.225399 332.638438)scale(0.1 -0.1)">
       <use xlink:href="#DejaVuSans-50"/>
       <use x="63.623047" xlink:href="#DejaVuSans-48"/>
      </g>
     </g>
    </g>
    <g id="text_7">
     <!-- Gain -->
     <defs>
      <path d="M 59.515625 10.40625 
L 59.515625 29.984375 
L 43.40625 29.984375 
L 43.40625 38.09375 
L 69.28125 38.09375 
L 69.28125 6.78125 
Q 63.578125 2.734375 56.6875 0.65625 
Q 49.8125 -1.421875 42 -1.421875 
Q 24.90625 -1.421875 15.25 8.5625 
Q 5.609375 18.5625 5.609375 36.375 
Q 5.609375 54.25 15.25 64.234375 
Q 24.90625 74.21875 42 74.21875 
Q 49.125 74.21875 55.546875 72.453125 
Q 61.96875 70.703125 67.390625 67.28125 
L 67.390625 56.78125 
Q 61.921875 61.421875 55.765625 63.765625 
Q 49.609375 66.109375 42.828125 66.109375 
Q 29.4375 66.109375 22.71875 58.640625 
Q 16.015625 51.171875 16.015625 36.375 
Q 16.015625 21.625 22.71875 14.15625 
Q 29.4375 6.6875 42.828125 6.6875 
Q 48.046875 6.6875 52.140625 7.59375 
Q 56.25 8.5 59.515625 10.40625 
z
" id="DejaVuSans-71"/>
      <path d="M 34.28125 27.484375 
Q 23.390625 27.484375 19.1875 25 
Q 14.984375 22.515625 14.984375 16.5 
Q 14.984375 11.71875 18.140625 8.90625 
Q 21.296875 6.109375 26.703125 6.109375 
Q 34.1875 6.109375 38.703125 11.40625 
Q 43.21875 16.703125 43.21875 25.484375 
L 43.21875 27.484375 
z
M 52.203125 31.203125 
L 52.203125 0 
L 43.21875 0 
L 43.21875 8.296875 
Q 40.140625 3.328125 35.546875 0.953125 
Q 30.953125 -1.421875 24.3125 -1.421875 
Q 15.921875 -1.421875 10.953125 3.296875 
Q 6 8.015625 6 15.921875 
Q 6 25.140625 12.171875 29.828125 
Q 18.359375 34.515625 30.609375 34.515625 
L 43.21875 34.515625 
L 43.21875 35.40625 
Q 43.21875 41.609375 39.140625 45 
Q 35.0625 48.390625 27.6875 48.390625 
Q 23 48.390625 18.546875 47.265625 
Q 14.109375 46.140625 10.015625 43.890625 
L 10.015625 52.203125 
Q 14.9375 54.109375 19.578125 55.046875 
Q 24.21875 56 28.609375 56 
Q 40.484375 56 46.34375 49.84375 
Q 52.203125 43.703125 52.203125 31.203125 
z
" id="DejaVuSans-97"/>
      <path d="M 9.421875 54.6875 
L 18.40625 54.6875 
L 18.40625 0 
L 9.421875 0 
z
M 9.421875 75.984375 
L 18.40625 75.984375 
L 18.40625 64.59375 
L 9.421875 64.59375 
z
" id="DejaVuSans-105"/>
      <path d="M 54.890625 33.015625 
L 54.890625 0 
L 45.90625 0 
L 45.90625 32.71875 
Q 45.90625 40.484375 42.875 44.328125 
Q 39.84375 48.1875 33.796875 48.1875 
Q 26.515625 48.1875 22.3125 43.546875 
Q 18.109375 38.921875 18.109375 30.90625 
L 18.109375 0 
L 9.078125 0 
L 9.078125 54.6875 
L 18.109375 54.6875 
L 18.109375 46.1875 
Q 21.34375 51.125 25.703125 53.5625 
Q 30.078125 56 35.796875 56 
Q 45.21875 56 50.046875 50.171875 
Q 54.890625 44.34375 54.890625 33.015625 
z
" id="DejaVuSans-110"/>
     </defs>
     <g transform="translate(196.837026 346.316563)scale(0.1 -0.1)">
      <use xlink:href="#DejaVuSans-71"/>
      <use x="77.490234" xlink:href="#DejaVuSans-97"/>
      <use x="138.769531" xlink:href="#DejaVuSans-105"/>
      <use x="166.552734" xlink:href="#DejaVuSans-110"/>
     </g>
    </g>
   </g>
   <g id="matplotlib.axis_2">
    <g id="ytick_1">
     <g id="line2d_7">
      <defs>
       <path d="M 0 0 
L -3.5 0 
" id="m163ee911d0" style="stroke:#000000;stroke-width:0.8;"/>
      </defs>
      <g>
       <use style="stroke:#000000;stroke-width:0.8;" x="60.97364" xlink:href="#m163ee911d0" y="291.100359"/>
      </g>
     </g>
     <g id="text_8">
      <!-- 80 -->
      <g transform="translate(41.24864 294.899577)scale(0.1 -0.1)">
       <use xlink:href="#DejaVuSans-56"/>
       <use x="63.623047" xlink:href="#DejaVuSans-48"/>
      </g>
     </g>
    </g>
    <g id="ytick_2">
     <g id="line2d_8">
      <g>
       <use style="stroke:#000000;stroke-width:0.8;" x="60.97364" xlink:href="#m163ee911d0" y="247.54336"/>
      </g>
     </g>
     <g id="text_9">
      <!-- 90 -->
      <defs>
       <path d="M 10.984375 1.515625 
L 10.984375 10.5 
Q 14.703125 8.734375 18.5 7.8125 
Q 22.3125 6.890625 25.984375 6.890625 
Q 35.75 6.890625 40.890625 13.453125 
Q 46.046875 20.015625 46.78125 33.40625 
Q 43.953125 29.203125 39.59375 26.953125 
Q 35.25 24.703125 29.984375 24.703125 
Q 19.046875 24.703125 12.671875 31.3125 
Q 6.296875 37.9375 6.296875 49.421875 
Q 6.296875 60.640625 12.9375 67.421875 
Q 19.578125 74.21875 30.609375 74.21875 
Q 43.265625 74.21875 49.921875 64.515625 
Q 56.59375 54.828125 56.59375 36.375 
Q 56.59375 19.140625 48.40625 8.859375 
Q 40.234375 -1.421875 26.421875 -1.421875 
Q 22.703125 -1.421875 18.890625 -0.6875 
Q 15.09375 0.046875 10.984375 1.515625 
z
M 30.609375 32.421875 
Q 37.25 32.421875 41.125 36.953125 
Q 45.015625 41.5 45.015625 49.421875 
Q 45.015625 57.28125 41.125 61.84375 
Q 37.25 66.40625 30.609375 66.40625 
Q 23.96875 66.40625 20.09375 61.84375 
Q 16.21875 57.28125 16.21875 49.421875 
Q 16.21875 41.5 20.09375 36.953125 
Q 23.96875 32.421875 30.609375 32.421875 
z
" id="DejaVuSans-57"/>
      </defs>
      <g transform="translate(41.24864 251.342579)scale(0.1 -0.1)">
       <use xlink:href="#DejaVuSans-57"/>
       <use x="63.623047" xlink:href="#DejaVuSans-48"/>
      </g>
     </g>
    </g>
    <g id="ytick_3">
     <g id="line2d_9">
      <g>
       <use style="stroke:#000000;stroke-width:0.8;" x="60.97364" xlink:href="#m163ee911d0" y="203.986361"/>
      </g>
     </g>
     <g id="text_10">
      <!-- 100 -->
      <g transform="translate(34.88614 207.78558)scale(0.1 -0.1)">
       <use xlink:href="#DejaVuSans-49"/>
       <use x="63.623047" xlink:href="#DejaVuSans-48"/>
       <use x="127.246094" xlink:href="#DejaVuSans-48"/>
      </g>
     </g>
    </g>
    <g id="ytick_4">
     <g id="line2d_10">
      <g>
       <use style="stroke:#000000;stroke-width:0.8;" x="60.97364" xlink:href="#m163ee911d0" y="160.429362"/>
      </g>
     </g>
     <g id="text_11">
      <!-- 110 -->
      <g transform="translate(34.88614 164.228581)scale(0.1 -0.1)">
       <use xlink:href="#DejaVuSans-49"/>
       <use x="63.623047" xlink:href="#DejaVuSans-49"/>
       <use x="127.246094" xlink:href="#DejaVuSans-48"/>
      </g>
     </g>
    </g>
    <g id="ytick_5">
     <g id="line2d_11">
      <g>
       <use style="stroke:#000000;stroke-width:0.8;" x="60.97364" xlink:href="#m163ee911d0" y="116.872363"/>
      </g>
     </g>
     <g id="text_12">
      <!-- 120 -->
      <g transform="translate(34.88614 120.671582)scale(0.1 -0.1)">
       <use xlink:href="#DejaVuSans-49"/>
       <use x="63.623047" xlink:href="#DejaVuSans-50"/>
       <use x="127.246094" xlink:href="#DejaVuSans-48"/>
      </g>
     </g>
    </g>
    <g id="ytick_6">
     <g id="line2d_12">
      <g>
       <use style="stroke:#000000;stroke-width:0.8;" x="60.97364" xlink:href="#m163ee911d0" y="73.315365"/>
      </g>
     </g>
     <g id="text_13">
      <!-- 130 -->
      <defs>
       <path d="M 40.578125 39.3125 
Q 47.65625 37.796875 51.625 33 
Q 55.609375 28.21875 55.609375 21.1875 
Q 55.609375 10.40625 48.1875 4.484375 
Q 40.765625 -1.421875 27.09375 -1.421875 
Q 22.515625 -1.421875 17.65625 -0.515625 
Q 12.796875 0.390625 7.625 2.203125 
L 7.625 11.71875 
Q 11.71875 9.328125 16.59375 8.109375 
Q 21.484375 6.890625 26.8125 6.890625 
Q 36.078125 6.890625 40.9375 10.546875 
Q 45.796875 14.203125 45.796875 21.1875 
Q 45.796875 27.640625 41.28125 31.265625 
Q 36.765625 34.90625 28.71875 34.90625 
L 20.21875 34.90625 
L 20.21875 43.015625 
L 29.109375 43.015625 
Q 36.375 43.015625 40.234375 45.921875 
Q 44.09375 48.828125 44.09375 54.296875 
Q 44.09375 59.90625 40.109375 62.90625 
Q 36.140625 65.921875 28.71875 65.921875 
Q 24.65625 65.921875 20.015625 65.03125 
Q 15.375 64.15625 9.8125 62.3125 
L 9.8125 71.09375 
Q 15.4375 72.65625 20.34375 73.4375 
Q 25.25 74.21875 29.59375 74.21875 
Q 40.828125 74.21875 47.359375 69.109375 
Q 53.90625 64.015625 53.90625 55.328125 
Q 53.90625 49.265625 50.4375 45.09375 
Q 46.96875 40.921875 40.578125 39.3125 
z
" id="DejaVuSans-51"/>
      </defs>
      <g transform="translate(34.88614 77.114583)scale(0.1 -0.1)">
       <use xlink:href="#DejaVuSans-49"/>
       <use x="63.623047" xlink:href="#DejaVuSans-51"/>
       <use x="127.246094" xlink:href="#DejaVuSans-48"/>
      </g>
     </g>
    </g>
    <g id="ytick_7">
     <g id="line2d_13">
      <g>
       <use style="stroke:#000000;stroke-width:0.8;" x="60.97364" xlink:href="#m163ee911d0" y="29.758366"/>
      </g>
     </g>
     <g id="text_14">
      <!-- 140 -->
      <g transform="translate(34.88614 33.557584)scale(0.1 -0.1)">
       <use xlink:href="#DejaVuSans-49"/>
       <use x="63.623047" xlink:href="#DejaVuSans-52"/>
       <use x="127.246094" xlink:href="#DejaVuSans-48"/>
      </g>
     </g>
    </g>
    <g id="text_15">
     <!-- Value -->
     <defs>
      <path d="M 28.609375 0 
L 0.78125 72.90625 
L 11.078125 72.90625 
L 34.1875 11.53125 
L 57.328125 72.90625 
L 67.578125 72.90625 
L 39.796875 0 
z
" id="DejaVuSans-86"/>
      <path d="M 9.421875 75.984375 
L 18.40625 75.984375 
L 18.40625 0 
L 9.421875 0 
z
" id="DejaVuSans-108"/>
      <path d="M 8.5 21.578125 
L 8.5 54.6875 
L 17.484375 54.6875 
L 17.484375 21.921875 
Q 17.484375 14.15625 20.5 10.265625 
Q 23.53125 6.390625 29.59375 6.390625 
Q 36.859375 6.390625 41.078125 11.03125 
Q 45.3125 15.671875 45.3125 23.6875 
L 45.3125 54.6875 
L 54.296875 54.6875 
L 54.296875 0 
L 45.3125 0 
L 45.3125 8.40625 
Q 42.046875 3.421875 37.71875 1 
Q 33.40625 -1.421875 27.6875 -1.421875 
Q 18.265625 -1.421875 13.375 4.4375 
Q 8.5 10.296875 8.5 21.578125 
z
M 31.109375 56 
z
" id="DejaVuSans-117"/>
      <path d="M 56.203125 29.59375 
L 56.203125 25.203125 
L 14.890625 25.203125 
Q 15.484375 15.921875 20.484375 11.0625 
Q 25.484375 6.203125 34.421875 6.203125 
Q 39.59375 6.203125 44.453125 7.46875 
Q 49.3125 8.734375 54.109375 11.28125 
L 54.109375 2.78125 
Q 49.265625 0.734375 44.1875 -0.34375 
Q 39.109375 -1.421875 33.890625 -1.421875 
Q 20.796875 -1.421875 13.15625 6.1875 
Q 5.515625 13.8125 5.515625 26.8125 
Q 5.515625 40.234375 12.765625 48.109375 
Q 20.015625 56 32.328125 56 
Q 43.359375 56 49.78125 48.890625 
Q 56.203125 41.796875 56.203125 29.59375 
z
M 47.21875 32.234375 
Q 47.125 39.59375 43.09375 43.984375 
Q 39.0625 48.390625 32.421875 48.390625 
Q 24.90625 48.390625 20.390625 44.140625 
Q 15.875 39.890625 15.1875 32.171875 
z
" id="DejaVuSans-101"/>
     </defs>
     <g transform="translate(28.806452 179.793281)rotate(-90)scale(0.1 -0.1)">
      <use xlink:href="#DejaVuSans-86"/>
      <use x="68.298828" xlink:href="#DejaVuSans-97"/>
      <use x="129.578125" xlink:href="#DejaVuSans-108"/>
      <use x="157.361328" xlink:href="#DejaVuSans-117"/>
      <use x="220.740234" xlink:href="#DejaVuSans-101"/>
     </g>
    </g>
   </g>
   <g id="line2d_14">
    <path clip-path="url(#p213311a3ae)" d="M 86.548426 301.445081 
L 89.008723 300.925874 
L 91.469019 300.406666 
L 93.929316 299.887458 
L 96.389613 299.36825 
L 98.84991 298.849042 
L 101.310207 298.329835 
L 103.770504 297.810627 
L 106.230801 297.291419 
L 108.691097 296.772211 
L 111.151394 296.253003 
L 113.611691 295.733796 
L 116.071988 295.214588 
L 118.532285 294.69538 
L 120.992582 294.176172 
L 123.452879 293.656964 
L 125.913175 293.137757 
L 128.373472 292.618549 
L 130.833769 292.099341 
L 133.294066 291.580133 
L 135.754363 291.060925 
L 138.21466 290.541718 
L 140.674957 290.02251 
L 143.135253 289.503302 
L 145.59555 288.984094 
L 148.055847 288.464886 
L 150.516144 287.945679 
L 152.976441 287.426471 
L 155.436738 286.907263 
L 157.897035 286.388055 
L 160.357331 285.868847 
L 162.817628 285.34964 
L 165.277925 284.830432 
L 167.738222 284.311224 
L 170.198519 283.792016 
L 172.658816 283.272808 
L 175.119112 282.753601 
L 177.579409 282.234393 
L 180.039706 281.715185 
L 182.500003 281.195977 
L 184.9603 280.676769 
L 187.420597 280.157561 
L 189.880894 279.638354 
L 192.34119 279.119146 
L 194.801487 278.599938 
L 197.261784 278.08073 
L 199.722081 277.561522 
L 202.182378 277.042315 
L 204.642675 276.523107 
L 207.102972 276.003899 
L 209.563268 275.484691 
L 212.023565 274.965483 
L 214.483862 274.446276 
L 216.944159 273.927068 
L 219.404456 273.40786 
L 221.864753 272.888652 
L 224.32505 272.369444 
L 226.785346 271.850237 
L 229.245643 271.331029 
L 231.70594 270.811821 
L 234.166237 270.292613 
L 236.626534 269.773405 
L 239.086831 269.254198 
L 241.547128 268.73499 
L 244.007424 268.215782 
L 246.467721 267.696574 
L 248.928018 267.177366 
L 251.388315 266.658159 
L 253.848612 266.138951 
L 256.308909 265.619743 
L 258.769205 265.100535 
L 261.229502 264.581327 
L 263.689799 264.06212 
L 266.150096 263.542912 
L 268.610393 263.023704 
L 271.07069 262.504496 
L 273.530987 261.985288 
L 275.991283 261.466081 
L 278.45158 260.946873 
L 280.911877 260.427665 
L 283.372174 259.908457 
L 285.832471 259.389249 
L 288.292768 258.870041 
L 290.753065 258.350834 
L 293.213361 257.831626 
L 295.673658 257.312418 
L 298.133955 256.79321 
L 300.594252 256.274002 
L 303.054549 255.754795 
L 305.514846 255.235587 
L 307.975143 254.716379 
L 310.435439 254.197171 
L 312.895736 253.677963 
L 315.356033 253.158756 
L 317.81633 252.639548 
L 320.276627 252.12034 
L 322.736924 251.601132 
L 325.197221 251.081924 
L 327.657517 250.562717 
L 330.117814 250.043509 
" style="fill:none;stroke:#1f77b4;stroke-linecap:square;stroke-width:2.25;"/>
   </g>
   <g id="line2d_15">
    <path clip-path="url(#p213311a3ae)" d="M 74.369956 224.153083 
L 77.076283 223.029598 
L 79.782609 221.906114 
L 82.488936 220.782629 
L 85.195263 219.659144 
L 87.901589 218.53566 
L 90.607916 217.412175 
L 93.314242 216.28869 
L 96.020569 215.165206 
L 98.726895 214.041721 
L 101.433222 212.918236 
L 104.139548 211.794751 
L 106.845875 210.671267 
L 109.552201 209.547782 
L 112.258528 208.424297 
L 114.964854 207.300813 
L 117.671181 206.177328 
L 120.377508 205.053843 
L 123.083834 203.930358 
L 125.790161 202.806874 
L 128.496487 201.683389 
L 131.202814 200.559904 
L 133.90914 199.43642 
L 136.615467 198.312935 
L 139.321793 197.18945 
L 142.02812 196.065965 
L 144.734446 194.942481 
L 147.440773 193.818996 
L 150.147099 192.695511 
L 152.853426 191.572027 
L 155.559753 190.448542 
L 158.266079 189.325057 
L 160.972406 188.201572 
L 163.678732 187.078088 
L 166.385059 185.954603 
L 169.091385 184.831118 
L 171.797712 183.707634 
L 174.504038 182.584149 
L 177.210365 181.460664 
L 179.916691 180.33718 
L 182.623018 179.213695 
L 185.329344 178.09021 
L 188.035671 176.966725 
L 190.741998 175.843241 
L 193.448324 174.719756 
L 196.154651 173.596271 
L 198.860977 172.472787 
L 201.567304 171.349302 
L 204.27363 170.225817 
L 206.979957 169.102332 
L 209.686283 167.978848 
L 212.39261 166.855363 
L 215.098936 165.731878 
L 217.805263 164.608394 
L 220.511589 163.484909 
L 223.217916 162.361424 
L 225.924242 161.237939 
L 228.630569 160.114455 
L 231.336896 158.99097 
L 234.043222 157.867485 
L 236.749549 156.744001 
L 239.455875 155.620516 
L 242.162202 154.497031 
L 244.868528 153.373546 
L 247.574855 152.250062 
L 250.281181 151.126577 
L 252.987508 150.003092 
L 255.693834 148.879608 
L 258.400161 147.756123 
L 261.106487 146.632638 
L 263.812814 145.509154 
L 266.519141 144.385669 
L 269.225467 143.262184 
L 271.931794 142.138699 
L 274.63812 141.015215 
L 277.344447 139.89173 
L 280.050773 138.768245 
L 282.7571 137.644761 
L 285.463426 136.521276 
L 288.169753 135.397791 
L 290.876079 134.274306 
L 293.582406 133.150822 
L 296.288732 132.027337 
L 298.995059 130.903852 
L 301.701386 129.780368 
L 304.407712 128.656883 
L 307.114039 127.533398 
L 309.820365 126.409913 
L 312.526692 125.286429 
L 315.233018 124.162944 
L 317.939345 123.039459 
L 320.645671 121.915975 
L 323.351998 120.79249 
L 326.058324 119.669005 
L 328.764651 118.54552 
L 331.470977 117.422036 
L 334.177304 116.298551 
L 336.883631 115.175066 
L 339.589957 114.051582 
L 342.296284 112.928097 
" style="fill:none;stroke:#ff7f0e;stroke-linecap:square;stroke-width:2.25;"/>
   </g>
   <g id="line2d_16">
    <path clip-path="url(#p213311a3ae)" d="M 60.97364 184.347436 
L 63.950599 182.796102 
L 66.927558 181.244768 
L 69.904518 179.693433 
L 72.881477 178.142099 
L 75.858436 176.590765 
L 78.835395 175.039431 
L 81.812354 173.488097 
L 84.789314 171.936762 
L 87.766273 170.385428 
L 90.743232 168.834094 
L 93.720191 167.28276 
L 96.69715 165.731426 
L 99.674109 164.180091 
L 102.651069 162.628757 
L 105.628028 161.077423 
L 108.604987 159.526089 
L 111.581946 157.974754 
L 114.558905 156.42342 
L 117.535865 154.872086 
L 120.512824 153.320752 
L 123.489783 151.769418 
L 126.466742 150.218083 
L 129.443701 148.666749 
L 132.420661 147.115415 
L 135.39762 145.564081 
L 138.374579 144.012747 
L 141.351538 142.461412 
L 144.328497 140.910078 
L 147.305457 139.358744 
L 150.282416 137.80741 
L 153.259375 136.256075 
L 156.236334 134.704741 
L 159.213293 133.153407 
L 162.190253 131.602073 
L 165.167212 130.050739 
L 168.144171 128.499404 
L 171.12113 126.94807 
L 174.098089 125.396736 
L 177.075048 123.845402 
L 180.052008 122.294068 
L 183.028967 120.742733 
L 186.005926 119.191399 
L 188.982885 117.640065 
L 191.959844 116.088731 
L 194.936804 114.537396 
L 197.913763 112.986062 
L 200.890722 111.434728 
L 203.867681 109.883394 
L 206.84464 108.33206 
L 209.8216 106.780725 
L 212.798559 105.229391 
L 215.775518 103.678057 
L 218.752477 102.126723 
L 221.729436 100.575388 
L 224.706396 99.024054 
L 227.683355 97.47272 
L 230.660314 95.921386 
L 233.637273 94.370052 
L 236.614232 92.818717 
L 239.591192 91.267383 
L 242.568151 89.716049 
L 245.54511 88.164715 
L 248.522069 86.613381 
L 251.499028 85.062046 
L 254.475987 83.510712 
L 257.452947 81.959378 
L 260.429906 80.408044 
L 263.406865 78.856709 
L 266.383824 77.305375 
L 269.360783 75.754041 
L 272.337743 74.202707 
L 275.314702 72.651373 
L 278.291661 71.100038 
L 281.26862 69.548704 
L 284.245579 67.99737 
L 287.222539 66.446036 
L 290.199498 64.894702 
L 293.176457 63.343367 
L 296.153416 61.792033 
L 299.130375 60.240699 
L 302.107335 58.689365 
L 305.084294 57.13803 
L 308.061253 55.586696 
L 311.038212 54.035362 
L 314.015171 52.484028 
L 316.992131 50.932694 
L 319.96909 49.381359 
L 322.946049 47.830025 
L 325.923008 46.278691 
L 328.899967 44.727357 
L 331.876926 43.176023 
L 334.853886 41.624688 
L 337.830845 40.073354 
L 340.807804 38.52202 
L 343.784763 36.970686 
L 346.761722 35.419351 
L 349.738682 33.868017 
L 352.715641 32.316683 
L 355.6926 30.765349 
" style="fill:none;stroke:#2ca02c;stroke-linecap:square;stroke-width:2.25;"/>
   </g>
   <g id="patch_3">
    <path d="M 60.97364 318.04 
L 60.97364 13.32 
" style="fill:none;stroke:#000000;stroke-linecap:square;stroke-linejoin:miter;stroke-width:0.8;"/>
   </g>
   <g id="patch_4">
    <path d="M 60.97364 318.04 
L 355.6926 318.04 
" style="fill:none;stroke:#000000;stroke-linecap:square;stroke-linejoin:miter;stroke-width:0.8;"/>
   </g>
  </g>
  <g id="text_16">
   <!-- Fixed Exposure -->
   <defs>
    <path d="M 9.8125 72.90625 
L 51.703125 72.90625 
L 51.703125 64.59375 
L 19.671875 64.59375 
L 19.671875 43.109375 
L 48.578125 43.109375 
L 48.578125 34.8125 
L 19.671875 34.8125 
L 19.671875 0 
L 9.8125 0 
z
" id="DejaVuSans-70"/>
    <path d="M 54.890625 54.6875 
L 35.109375 28.078125 
L 55.90625 0 
L 45.3125 0 
L 29.390625 21.484375 
L 13.484375 0 
L 2.875 0 
L 24.125 28.609375 
L 4.6875 54.6875 
L 15.28125 54.6875 
L 29.78125 35.203125 
L 44.28125 54.6875 
z
" id="DejaVuSans-120"/>
    <path d="M 45.40625 46.390625 
L 45.40625 75.984375 
L 54.390625 75.984375 
L 54.390625 0 
L 45.40625 0 
L 45.40625 8.203125 
Q 42.578125 3.328125 38.25 0.953125 
Q 33.9375 -1.421875 27.875 -1.421875 
Q 17.96875 -1.421875 11.734375 6.484375 
Q 5.515625 14.40625 5.515625 27.296875 
Q 5.515625 40.1875 11.734375 48.09375 
Q 17.96875 56 27.875 56 
Q 33.9375 56 38.25 53.625 
Q 42.578125 51.265625 45.40625 46.390625 
z
M 14.796875 27.296875 
Q 14.796875 17.390625 18.875 11.75 
Q 22.953125 6.109375 30.078125 6.109375 
Q 37.203125 6.109375 41.296875 11.75 
Q 45.40625 17.390625 45.40625 27.296875 
Q 45.40625 37.203125 41.296875 42.84375 
Q 37.203125 48.484375 30.078125 48.484375 
Q 22.953125 48.484375 18.875 42.84375 
Q 14.796875 37.203125 14.796875 27.296875 
z
" id="DejaVuSans-100"/>
    <path id="DejaVuSans-32"/>
    <path d="M 9.8125 72.90625 
L 55.90625 72.90625 
L 55.90625 64.59375 
L 19.671875 64.59375 
L 19.671875 43.015625 
L 54.390625 43.015625 
L 54.390625 34.71875 
L 19.671875 34.71875 
L 19.671875 8.296875 
L 56.78125 8.296875 
L 56.78125 0 
L 9.8125 0 
z
" id="DejaVuSans-69"/>
    <path d="M 18.109375 8.203125 
L 18.109375 -20.796875 
L 9.078125 -20.796875 
L 9.078125 54.6875 
L 18.109375 54.6875 
L 18.109375 46.390625 
Q 20.953125 51.265625 25.265625 53.625 
Q 29.59375 56 35.59375 56 
Q 45.5625 56 51.78125 48.09375 
Q 58.015625 40.1875 58.015625 27.296875 
Q 58.015625 14.40625 51.78125 6.484375 
Q 45.5625 -1.421875 35.59375 -1.421875 
Q 29.59375 -1.421875 25.265625 0.953125 
Q 20.953125 3.328125 18.109375 8.203125 
z
M 48.6875 27.296875 
Q 48.6875 37.203125 44.609375 42.84375 
Q 40.53125 48.484375 33.40625 48.484375 
Q 26.265625 48.484375 22.1875 42.84375 
Q 18.109375 37.203125 18.109375 27.296875 
Q 18.109375 17.390625 22.1875 11.75 
Q 26.265625 6.109375 33.40625 6.109375 
Q 40.53125 6.109375 44.609375 11.75 
Q 48.6875 17.390625 48.6875 27.296875 
z
" id="DejaVuSans-112"/>
    <path d="M 30.609375 48.390625 
Q 23.390625 48.390625 19.1875 42.75 
Q 14.984375 37.109375 14.984375 27.296875 
Q 14.984375 17.484375 19.15625 11.84375 
Q 23.34375 6.203125 30.609375 6.203125 
Q 37.796875 6.203125 41.984375 11.859375 
Q 46.1875 17.53125 46.1875 27.296875 
Q 46.1875 37.015625 41.984375 42.703125 
Q 37.796875 48.390625 30.609375 48.390625 
z
M 30.609375 56 
Q 42.328125 56 49.015625 48.375 
Q 55.71875 40.765625 55.71875 27.296875 
Q 55.71875 13.875 49.015625 6.21875 
Q 42.328125 -1.421875 30.609375 -1.421875 
Q 18.84375 -1.421875 12.171875 6.21875 
Q 5.515625 13.875 5.515625 27.296875 
Q 5.515625 40.765625 12.171875 48.375 
Q 18.84375 56 30.609375 56 
z
" id="DejaVuSans-111"/>
    <path d="M 44.28125 53.078125 
L 44.28125 44.578125 
Q 40.484375 46.53125 36.375 47.5 
Q 32.28125 48.484375 27.875 48.484375 
Q 21.1875 48.484375 17.84375 46.4375 
Q 14.5 44.390625 14.5 40.28125 
Q 14.5 37.15625 16.890625 35.375 
Q 19.28125 33.59375 26.515625 31.984375 
L 29.59375 31.296875 
Q 39.15625 29.25 43.1875 25.515625 
Q 47.21875 21.78125 47.21875 15.09375 
Q 47.21875 7.46875 41.1875 3.015625 
Q 35.15625 -1.421875 24.609375 -1.421875 
Q 20.21875 -1.421875 15.453125 -0.5625 
Q 10.6875 0.296875 5.421875 2 
L 5.421875 11.28125 
Q 10.40625 8.6875 15.234375 7.390625 
Q 20.0625 6.109375 24.8125 6.109375 
Q 31.15625 6.109375 34.5625 8.28125 
Q 37.984375 10.453125 37.984375 14.40625 
Q 37.984375 18.0625 35.515625 20.015625 
Q 33.0625 21.96875 24.703125 23.78125 
L 21.578125 24.515625 
Q 13.234375 26.265625 9.515625 29.90625 
Q 5.8125 33.546875 5.8125 39.890625 
Q 5.8125 47.609375 11.28125 51.796875 
Q 16.75 56 26.8125 56 
Q 31.78125 56 36.171875 55.265625 
Q 40.578125 54.546875 44.28125 53.078125 
z
" id="DejaVuSans-115"/>
    <path d="M 41.109375 46.296875 
Q 39.59375 47.171875 37.8125 47.578125 
Q 36.03125 48 33.890625 48 
Q 26.265625 48 22.1875 43.046875 
Q 18.109375 38.09375 18.109375 28.8125 
L 18.109375 0 
L 9.078125 0 
L 9.078125 54.6875 
L 18.109375 54.6875 
L 18.109375 46.1875 
Q 20.953125 51.171875 25.484375 53.578125 
Q 30.03125 56 36.53125 56 
Q 37.453125 56 38.578125 55.875 
Q 39.703125 55.765625 41.0625 55.515625 
z
" id="DejaVuSans-114"/>
   </defs>
   <g transform="translate(138.745 22.396875)scale(0.2 -0.2)">
    <use xlink:href="#DejaVuSans-70"/>
    <use x="57.410156" xlink:href="#DejaVuSans-105"/>
    <use x="85.193359" xlink:href="#DejaVuSans-120"/>
    <use x="144.326172" xlink:href="#DejaVuSans-101"/>
    <use x="205.849609" xlink:href="#DejaVuSans-100"/>
    <use x="269.326172" xlink:href="#DejaVuSans-32"/>
    <use x="301.113281" xlink:href="#DejaVuSans-69"/>
    <use x="364.296875" xlink:href="#DejaVuSans-120"/>
    <use x="423.476562" xlink:href="#DejaVuSans-112"/>
    <use x="486.953125" xlink:href="#DejaVuSans-111"/>
    <use x="548.134766" xlink:href="#DejaVuSans-115"/>
    <use x="600.234375" xlink:href="#DejaVuSans-117"/>
    <use x="663.613281" xlink:href="#DejaVuSans-114"/>
    <use x="704.695312" xlink:href="#DejaVuSans-101"/>
   </g>
  </g>
  <g id="legend_1">
   <g id="text_17">
    <!-- Exposure -->
    <g transform="translate(366.988437 160.742188)scale(0.1 -0.1)">
     <use xlink:href="#DejaVuSans-69"/>
     <use x="63.183594" xlink:href="#DejaVuSans-120"/>
     <use x="122.363281" xlink:href="#DejaVuSans-112"/>
     <use x="185.839844" xlink:href="#DejaVuSans-111"/>
     <use x="247.021484" xlink:href="#DejaVuSans-115"/>
     <use x="299.121094" xlink:href="#DejaVuSans-117"/>
     <use x="362.5" xlink:href="#DejaVuSans-114"/>
     <use x="403.582031" xlink:href="#DejaVuSans-101"/>
    </g>
   </g>
   <g id="PathCollection_4">
    <g>
     <use style="fill:#1f77b4;fill-opacity:0.8;stroke:#1f77b4;stroke-opacity:0.8;" x="368.749375" xlink:href="#mff23528a2e" y="172.795312"/>
    </g>
   </g>
   <g id="text_18">
    <!-- 1000.0 -->
    <defs>
     <path d="M 10.6875 12.40625 
L 21 12.40625 
L 21 0 
L 10.6875 0 
z
" id="DejaVuSans-46"/>
    </defs>
    <g transform="translate(386.749375 175.420312)scale(0.1 -0.1)">
     <use xlink:href="#DejaVuSans-49"/>
     <use x="63.623047" xlink:href="#DejaVuSans-48"/>
     <use x="127.246094" xlink:href="#DejaVuSans-48"/>
     <use x="190.869141" xlink:href="#DejaVuSans-48"/>
     <use x="254.492188" xlink:href="#DejaVuSans-46"/>
     <use x="286.279297" xlink:href="#DejaVuSans-48"/>
    </g>
   </g>
   <g id="PathCollection_5">
    <g>
     <use style="fill:#ff7f0e;fill-opacity:0.8;stroke:#ff7f0e;stroke-opacity:0.8;" x="368.749375" xlink:href="#m13ea1a15f8" y="187.473437"/>
    </g>
   </g>
   <g id="text_19">
    <!-- 5000.0 -->
    <defs>
     <path d="M 10.796875 72.90625 
L 49.515625 72.90625 
L 49.515625 64.59375 
L 19.828125 64.59375 
L 19.828125 46.734375 
Q 21.96875 47.46875 24.109375 47.828125 
Q 26.265625 48.1875 28.421875 48.1875 
Q 40.625 48.1875 47.75 41.5 
Q 54.890625 34.8125 54.890625 23.390625 
Q 54.890625 11.625 47.5625 5.09375 
Q 40.234375 -1.421875 26.90625 -1.421875 
Q 22.3125 -1.421875 17.546875 -0.640625 
Q 12.796875 0.140625 7.71875 1.703125 
L 7.71875 11.625 
Q 12.109375 9.234375 16.796875 8.0625 
Q 21.484375 6.890625 26.703125 6.890625 
Q 35.15625 6.890625 40.078125 11.328125 
Q 45.015625 15.765625 45.015625 23.390625 
Q 45.015625 31 40.078125 35.4375 
Q 35.15625 39.890625 26.703125 39.890625 
Q 22.75 39.890625 18.8125 39.015625 
Q 14.890625 38.140625 10.796875 36.28125 
z
" id="DejaVuSans-53"/>
    </defs>
    <g transform="translate(386.749375 190.098437)scale(0.1 -0.1)">
     <use xlink:href="#DejaVuSans-53"/>
     <use x="63.623047" xlink:href="#DejaVuSans-48"/>
     <use x="127.246094" xlink:href="#DejaVuSans-48"/>
     <use x="190.869141" xlink:href="#DejaVuSans-48"/>
     <use x="254.492188" xlink:href="#DejaVuSans-46"/>
     <use x="286.279297" xlink:href="#DejaVuSans-48"/>
    </g>
   </g>
   <g id="PathCollection_6">
    <g>
     <use style="fill:#2ca02c;fill-opacity:0.8;stroke:#2ca02c;stroke-opacity:0.8;" x="368.749375" xlink:href="#m857616bfc9" y="202.151563"/>
    </g>
   </g>
   <g id="text_20">
    <!-- 9000.0 -->
    <g transform="translate(386.749375 204.776563)scale(0.1 -0.1)">
     <use xlink:href="#DejaVuSans-57"/>
     <use x="63.623047" xlink:href="#DejaVuSans-48"/>
     <use x="127.246094" xlink:href="#DejaVuSans-48"/>
     <use x="190.869141" xlink:href="#DejaVuSans-48"/>
     <use x="254.492188" xlink:href="#DejaVuSans-46"/>
     <use x="286.279297" xlink:href="#DejaVuSans-48"/>
    </g>
   </g>
  </g>
 </g>
 <defs>
  <clipPath id="p213311a3ae">
   <rect height="304.72" width="294.71896" x="60.97364" y="13.32"/>
  </clipPath>
 </defs>
</svg>
