<?xml version="1.0" encoding="utf-8" standalone="no"?>
<!DOCTYPE svg PUBLIC "-//W3C//DTD SVG 1.1//EN"
  "http://www.w3.org/Graphics/SVG/1.1/DTD/svg11.dtd">
<!-- Created with matplotlib (https://matplotlib.org/) -->
<svg height="360pt" version="1.1" viewBox="0 0 418.23 360" width="418.23pt" xmlns="http://www.w3.org/2000/svg" xmlns:xlink="http://www.w3.org/1999/xlink">
 <defs>
  <style type="text/css">
*{stroke-linecap:butt;stroke-linejoin:round;}
  </style>
 </defs>
 <g id="figure_1">
  <g id="patch_1">
   <path d="M 0 360 
L 418.23 360 
L 418.23 0 
L 0 0 
z
" style="fill:#ffffff;"/>
  </g>
  <g id="axes_1">
   <g id="patch_2">
    <path d="M 59.20278 318.04 
L 355.8177 318.04 
L 355.8177 13.32 
L 59.20278 13.32 
z
" style="fill:#ffffff;"/>
   </g>
   <g id="PathCollection_1">
    <defs>
     <path d="M 0 3 
C 0.795609 3 1.55874 2.683901 2.12132 2.12132 
C 2.683901 1.55874 3 0.795609 3 0 
C 3 -0.795609 2.683901 -1.55874 2.12132 -2.12132 
C 1.55874 -2.683901 0.795609 -3 0 -3 
C -0.795609 -3 -1.55874 -2.683901 -2.12132 -2.12132 
C -2.683901 -1.55874 -3 -0.795609 -3 0 
C -3 0.795609 -2.683901 1.55874 -2.12132 2.12132 
C -1.55874 2.683901 -0.795609 3 0 3 
z
" id="m407618274c" style="stroke:#1f77b4;stroke-opacity:0.8;"/>
    </defs>
    <g clip-path="url(#pffd448ece1)">
     <use style="fill:#1f77b4;fill-opacity:0.8;stroke:#1f77b4;stroke-opacity:0.8;" x="97.779622" xlink:href="#m407618274c" y="299.136702"/>
     <use style="fill:#1f77b4;fill-opacity:0.8;stroke:#1f77b4;stroke-opacity:0.8;" x="134.356495" xlink:href="#m407618274c" y="281.298895"/>
     <use style="fill:#1f77b4;fill-opacity:0.8;stroke:#1f77b4;stroke-opacity:0.8;" x="170.933367" xlink:href="#m407618274c" y="265.84713"/>
     <use style="fill:#1f77b4;fill-opacity:0.8;stroke:#1f77b4;stroke-opacity:0.8;" x="207.51024" xlink:href="#m407618274c" y="251.828172"/>
     <use style="fill:#1f77b4;fill-opacity:0.8;stroke:#1f77b4;stroke-opacity:0.8;" x="244.087113" xlink:href="#m407618274c" y="234.868141"/>
     <use style="fill:#1f77b4;fill-opacity:0.8;stroke:#1f77b4;stroke-opacity:0.8;" x="280.663985" xlink:href="#m407618274c" y="227.408637"/>
     <use style="fill:#1f77b4;fill-opacity:0.8;stroke:#1f77b4;stroke-opacity:0.8;" x="317.240858" xlink:href="#m407618274c" y="216.567128"/>
    </g>
   </g>
   <g id="PolyCollection_1">
    <path clip-path="url(#pffd448ece1)" d="M 84.942091 291.773629 
L 84.942091 304.189091 
L 87.418215 303.182934 
L 89.89434 302.114071 
L 92.370464 301.046509 
L 94.846588 299.976345 
L 97.322712 298.8938 
L 99.798837 297.839114 
L 102.274961 296.770099 
L 104.751085 295.709708 
L 107.227209 294.692543 
L 109.703333 293.656885 
L 112.179458 292.604029 
L 114.655582 291.57675 
L 117.131706 290.52157 
L 119.60783 289.48533 
L 122.083955 288.524781 
L 124.560079 287.523999 
L 127.036203 286.533642 
L 129.512327 285.571889 
L 131.988451 284.612204 
L 134.464576 283.641647 
L 136.9407 282.691141 
L 139.416824 281.71831 
L 141.892948 280.743426 
L 144.369072 279.792625 
L 146.845197 278.841876 
L 149.321321 277.891127 
L 151.797445 276.940378 
L 154.273569 275.989629 
L 156.749694 275.03888 
L 159.225818 274.10732 
L 161.701942 273.189188 
L 164.178066 272.245814 
L 166.65419 271.29397 
L 169.130315 270.342128 
L 171.606439 269.421135 
L 174.082563 268.503137 
L 176.558687 267.575966 
L 179.034812 266.653834 
L 181.510936 265.731516 
L 183.98706 264.793796 
L 186.463184 263.846829 
L 188.939308 262.911216 
L 191.415433 261.9724 
L 193.891557 261.027753 
L 196.367681 260.084971 
L 198.843805 259.159601 
L 201.319929 258.234876 
L 203.796054 257.31658 
L 206.272178 256.398283 
L 208.748302 255.479986 
L 211.224426 254.561689 
L 213.700551 253.643392 
L 216.176675 252.701204 
L 218.652799 251.758916 
L 221.128923 250.8338 
L 223.605047 249.908755 
L 226.081172 248.983622 
L 228.557296 248.058533 
L 231.03342 247.148831 
L 233.509544 246.245317 
L 235.985668 245.319293 
L 238.461793 244.391239 
L 240.937917 243.46339 
L 243.414041 242.536131 
L 245.890165 241.628166 
L 248.36629 240.724117 
L 250.842414 239.781135 
L 253.318538 238.841152 
L 255.794662 237.897002 
L 258.270786 236.969587 
L 260.746911 236.056022 
L 263.223035 235.192036 
L 265.699159 234.32805 
L 268.175283 233.440861 
L 270.651408 232.522564 
L 273.127532 231.604267 
L 275.603656 230.686044 
L 278.07978 229.768054 
L 280.555904 228.8502 
L 283.032029 227.960551 
L 285.508153 227.088839 
L 287.984277 226.222927 
L 290.460401 225.350863 
L 292.936525 224.427399 
L 295.41265 223.521535 
L 297.888774 222.626768 
L 300.364898 221.776087 
L 302.841022 220.916304 
L 305.317147 220.053327 
L 307.793271 219.17052 
L 310.269395 218.288252 
L 312.745519 217.406187 
L 315.221643 216.582068 
L 317.697768 215.740736 
L 320.173892 214.903644 
L 322.650016 214.023292 
L 325.12614 213.174924 
L 327.602265 212.309738 
L 330.078389 211.473786 
L 330.078389 197.448112 
L 330.078389 197.448112 
L 327.602265 198.525783 
L 325.12614 199.603454 
L 322.650016 200.681125 
L 320.173892 201.758795 
L 317.697768 202.836466 
L 315.221643 203.91389 
L 312.745519 204.991311 
L 310.269395 206.068733 
L 307.793271 207.146154 
L 305.317147 208.223612 
L 302.841022 209.301567 
L 300.364898 210.379522 
L 297.888774 211.455847 
L 295.41265 212.524882 
L 292.936525 213.593603 
L 290.460401 214.662323 
L 287.984277 215.742276 
L 285.508153 216.828704 
L 283.032029 217.915132 
L 280.555904 218.999921 
L 278.07978 220.072679 
L 275.603656 221.138644 
L 273.127532 222.204609 
L 270.651408 223.270573 
L 268.175283 224.336538 
L 265.699159 225.402503 
L 263.223035 226.468468 
L 260.746911 227.534432 
L 258.270786 228.600397 
L 255.794662 229.666362 
L 253.318538 230.732327 
L 250.842414 231.798437 
L 248.36629 232.864655 
L 245.890165 233.930873 
L 243.414041 235.005013 
L 240.937917 236.082581 
L 238.461793 237.16111 
L 235.985668 238.239639 
L 233.509544 239.318183 
L 231.03342 240.385238 
L 228.557296 241.451798 
L 226.081172 242.477007 
L 223.605047 243.561454 
L 221.128923 244.641145 
L 218.652799 245.690096 
L 216.176675 246.734004 
L 213.700551 247.744962 
L 211.224426 248.796275 
L 208.748302 249.847826 
L 206.272178 250.752813 
L 203.796054 251.807957 
L 201.319929 252.832268 
L 198.843805 253.669622 
L 196.367681 254.515096 
L 193.891557 255.360064 
L 191.415433 256.206044 
L 188.939308 257.119069 
L 186.463184 257.945969 
L 183.98706 258.77287 
L 181.510936 259.59977 
L 179.034812 260.433414 
L 176.558687 261.278889 
L 174.082563 262.124363 
L 171.606439 262.969837 
L 169.130315 263.815311 
L 166.65419 264.660785 
L 164.178066 265.506259 
L 161.701942 266.351733 
L 159.225818 267.159627 
L 156.749694 267.956934 
L 154.273569 268.754241 
L 151.797445 269.551549 
L 149.321321 270.348856 
L 146.845197 271.169416 
L 144.369072 271.995112 
L 141.892948 272.820809 
L 139.416824 273.646505 
L 136.9407 274.472201 
L 134.464576 275.297898 
L 131.988451 276.123594 
L 129.512327 276.94929 
L 127.036203 277.774986 
L 124.560079 278.601785 
L 122.083955 279.428813 
L 119.60783 280.255841 
L 117.131706 281.082869 
L 114.655582 281.909897 
L 112.179458 282.736925 
L 109.703333 283.563953 
L 107.227209 284.390569 
L 104.751085 285.201236 
L 102.274961 286.020979 
L 99.798837 286.870531 
L 97.322712 287.696808 
L 94.846588 288.522813 
L 92.370464 289.343608 
L 89.89434 290.153615 
L 87.418215 290.963622 
L 84.942091 291.773629 
z
" style="fill:#1f77b4;fill-opacity:0.15;"/>
   </g>
   <g id="PathCollection_2">
    <defs>
     <path d="M 0 3 
C 0.795609 3 1.55874 2.683901 2.12132 2.12132 
C 2.683901 1.55874 3 0.795609 3 0 
C 3 -0.795609 2.683901 -1.55874 2.12132 -2.12132 
C 1.55874 -2.683901 0.795609 -3 0 -3 
C -0.795609 -3 -1.55874 -2.683901 -2.12132 -2.12132 
C -2.683901 -1.55874 -3 -0.795609 -3 0 
C -3 0.795609 -2.683901 1.55874 -2.12132 2.12132 
C -1.55874 2.683901 -0.795609 3 0 3 
z
" id="mc8cf56eada" style="stroke:#ff7f0e;stroke-opacity:0.8;"/>
    </defs>
    <g clip-path="url(#pffd448ece1)">
     <use style="fill:#ff7f0e;fill-opacity:0.8;stroke:#ff7f0e;stroke-opacity:0.8;" x="97.779622" xlink:href="#mc8cf56eada" y="250.578103"/>
     <use style="fill:#ff7f0e;fill-opacity:0.8;stroke:#ff7f0e;stroke-opacity:0.8;" x="134.356495" xlink:href="#mc8cf56eada" y="228.495061"/>
     <use style="fill:#ff7f0e;fill-opacity:0.8;stroke:#ff7f0e;stroke-opacity:0.8;" x="170.933367" xlink:href="#mc8cf56eada" y="209.530374"/>
     <use style="fill:#ff7f0e;fill-opacity:0.8;stroke:#ff7f0e;stroke-opacity:0.8;" x="207.51024" xlink:href="#mc8cf56eada" y="191.724842"/>
     <use style="fill:#ff7f0e;fill-opacity:0.8;stroke:#ff7f0e;stroke-opacity:0.8;" x="244.087113" xlink:href="#mc8cf56eada" y="176.114887"/>
     <use style="fill:#ff7f0e;fill-opacity:0.8;stroke:#ff7f0e;stroke-opacity:0.8;" x="280.663985" xlink:href="#mc8cf56eada" y="160.964048"/>
     <use style="fill:#ff7f0e;fill-opacity:0.8;stroke:#ff7f0e;stroke-opacity:0.8;" x="317.240858" xlink:href="#mc8cf56eada" y="147.331474"/>
    </g>
   </g>
   <g id="PolyCollection_2">
    <path clip-path="url(#pffd448ece1)" d="M 72.685276 249.116554 
L 72.685276 262.499424 
L 75.409013 261.094445 
L 78.13275 259.717727 
L 80.856486 258.319193 
L 83.580223 256.940818 
L 86.30396 255.551386 
L 89.027696 254.210683 
L 91.751433 252.843289 
L 94.475169 251.517917 
L 97.198906 250.144743 
L 99.922643 248.790276 
L 102.646379 247.379623 
L 105.370116 246.015579 
L 108.093853 244.654938 
L 110.817589 243.282193 
L 113.541326 241.998442 
L 116.265063 240.620925 
L 118.988799 239.290256 
L 121.712536 237.929566 
L 124.436273 236.610389 
L 127.160009 235.291056 
L 129.883746 233.963106 
L 132.607482 232.614864 
L 135.331219 231.313071 
L 138.054956 230.017 
L 140.778692 228.728247 
L 143.502429 227.438876 
L 146.226166 226.114312 
L 148.949902 224.831167 
L 151.673639 223.516561 
L 154.397376 222.190703 
L 157.121112 220.909947 
L 159.844849 219.581049 
L 162.568585 218.251937 
L 165.292322 216.944268 
L 168.016059 215.639009 
L 170.739795 214.333782 
L 173.463532 213.028856 
L 176.187269 211.72393 
L 178.911005 210.419413 
L 181.634742 209.148488 
L 184.358479 207.868466 
L 187.082215 206.585265 
L 189.805952 205.301292 
L 192.529688 204.003581 
L 195.253425 202.72048 
L 197.977162 201.437378 
L 200.700898 200.154276 
L 203.424635 198.86156 
L 206.148372 197.560769 
L 208.872108 196.304693 
L 211.595845 195.02187 
L 214.319582 193.738769 
L 217.043318 192.46912 
L 219.767055 191.213664 
L 222.490792 189.958208 
L 225.214528 188.702752 
L 227.938265 187.442245 
L 230.662001 186.153247 
L 233.385738 184.900337 
L 236.109475 183.635921 
L 238.833211 182.34728 
L 241.556948 181.09713 
L 244.280685 179.863003 
L 247.004421 178.628875 
L 249.728158 177.354801 
L 252.451895 176.071656 
L 255.175631 174.789711 
L 257.899368 173.506929 
L 260.623104 172.223295 
L 263.346841 170.956359 
L 266.070578 169.660307 
L 268.794314 168.372959 
L 271.518051 167.103128 
L 274.241788 165.893042 
L 276.965524 164.669208 
L 279.689261 163.382638 
L 282.412998 162.113082 
L 285.136734 160.894137 
L 287.860471 159.689535 
L 290.584207 158.42444 
L 293.307944 157.175359 
L 296.031681 155.990281 
L 298.755417 154.771259 
L 301.479154 153.574609 
L 304.202891 152.402544 
L 306.926627 151.223739 
L 309.650364 150.051959 
L 312.374101 148.93487 
L 315.097837 147.781031 
L 317.821574 146.644461 
L 320.545311 145.462358 
L 323.269047 144.296775 
L 325.992784 143.113462 
L 328.71652 141.942866 
L 331.440257 140.77794 
L 334.163994 139.62519 
L 336.88773 138.471682 
L 339.611467 137.318174 
L 342.335204 136.165037 
L 342.335204 123.135913 
L 342.335204 123.135913 
L 339.611467 124.529878 
L 336.88773 125.923843 
L 334.163994 127.317807 
L 331.440257 128.711772 
L 328.71652 130.105786 
L 325.992784 131.500552 
L 323.269047 132.895319 
L 320.545311 134.290085 
L 317.821574 135.684852 
L 315.097837 137.079618 
L 312.374101 138.474384 
L 309.650364 139.869151 
L 306.926627 141.263917 
L 304.202891 142.658684 
L 301.479154 144.05345 
L 298.755417 145.446421 
L 296.031681 146.831159 
L 293.307944 148.236294 
L 290.584207 149.629989 
L 287.860471 151.024198 
L 285.136734 152.418969 
L 282.412998 153.800297 
L 279.689261 155.180004 
L 276.965524 156.59177 
L 274.241788 157.997463 
L 271.518051 159.389053 
L 268.794314 160.785571 
L 266.070578 162.179951 
L 263.346841 163.574953 
L 260.623104 164.973002 
L 257.899368 166.363809 
L 255.175631 167.764633 
L 252.451895 169.173869 
L 249.728158 170.56224 
L 247.004421 171.940963 
L 244.280685 173.335217 
L 241.556948 174.746617 
L 238.833211 176.168017 
L 236.109475 177.56868 
L 233.385738 178.912001 
L 230.662001 180.306867 
L 227.938265 181.715482 
L 225.214528 183.132756 
L 222.490792 184.550381 
L 219.767055 185.968006 
L 217.043318 187.277248 
L 214.319582 188.567626 
L 211.595845 189.702491 
L 208.872108 190.854602 
L 206.148372 192.06281 
L 203.424635 193.359509 
L 200.700898 194.615114 
L 197.977162 196.042515 
L 195.253425 197.469737 
L 192.529688 198.698362 
L 189.805952 199.837024 
L 187.082215 201.02339 
L 184.358479 202.178463 
L 181.634742 203.371034 
L 178.911005 204.517242 
L 176.187269 205.668756 
L 173.463532 206.822249 
L 170.739795 207.959173 
L 168.016059 209.10109 
L 165.292322 210.247052 
L 162.568585 211.393014 
L 159.844849 212.538976 
L 157.121112 213.684938 
L 154.397376 214.8309 
L 151.673639 215.976862 
L 148.949902 217.122824 
L 146.226166 218.268786 
L 143.502429 219.409636 
L 140.778692 220.548387 
L 138.054956 221.687138 
L 135.331219 222.825889 
L 132.607482 223.969692 
L 129.883746 225.112731 
L 127.160009 226.25577 
L 124.436273 227.398809 
L 121.712536 228.541849 
L 118.988799 229.684888 
L 116.265063 230.827927 
L 113.541326 231.970966 
L 110.817589 233.114005 
L 108.093853 234.257044 
L 105.370116 235.400084 
L 102.646379 236.543123 
L 99.922643 237.686162 
L 97.198906 238.829201 
L 94.475169 239.97224 
L 91.751433 241.11528 
L 89.027696 242.258319 
L 86.30396 243.401358 
L 83.580223 244.544397 
L 80.856486 245.687436 
L 78.13275 246.830475 
L 75.409013 247.973515 
L 72.685276 249.116554 
z
" style="fill:#ff7f0e;fill-opacity:0.15;"/>
   </g>
   <g id="PathCollection_3">
    <defs>
     <path d="M 0 3 
C 0.795609 3 1.55874 2.683901 2.12132 2.12132 
C 2.683901 1.55874 3 0.795609 3 0 
C 3 -0.795609 2.683901 -1.55874 2.12132 -2.12132 
C 1.55874 -2.683901 0.795609 -3 0 -3 
C -0.795609 -3 -1.55874 -2.683901 -2.12132 -2.12132 
C -2.683901 -1.55874 -3 -0.795609 -3 0 
C -3 0.795609 -2.683901 1.55874 -2.12132 2.12132 
C -1.55874 2.683901 -0.795609 3 0 3 
z
" id="m2e10af0955" style="stroke:#2ca02c;stroke-opacity:0.8;"/>
    </defs>
    <g clip-path="url(#pffd448ece1)">
     <use style="fill:#2ca02c;fill-opacity:0.8;stroke:#2ca02c;stroke-opacity:0.8;" x="97.779622" xlink:href="#m2e10af0955" y="193.047643"/>
     <use style="fill:#2ca02c;fill-opacity:0.8;stroke:#2ca02c;stroke-opacity:0.8;" x="134.356495" xlink:href="#m2e10af0955" y="165.200646"/>
     <use style="fill:#2ca02c;fill-opacity:0.8;stroke:#2ca02c;stroke-opacity:0.8;" x="170.933367" xlink:href="#m2e10af0955" y="141.626613"/>
     <use style="fill:#2ca02c;fill-opacity:0.8;stroke:#2ca02c;stroke-opacity:0.8;" x="207.51024" xlink:href="#m2e10af0955" y="120.820915"/>
     <use style="fill:#2ca02c;fill-opacity:0.8;stroke:#2ca02c;stroke-opacity:0.8;" x="244.087113" xlink:href="#m2e10af0955" y="102.31989"/>
     <use style="fill:#2ca02c;fill-opacity:0.8;stroke:#2ca02c;stroke-opacity:0.8;" x="280.663985" xlink:href="#m2e10af0955" y="89.09643"/>
     <use style="fill:#2ca02c;fill-opacity:0.8;stroke:#2ca02c;stroke-opacity:0.8;" x="317.240858" xlink:href="#m2e10af0955" y="82.573341"/>
    </g>
   </g>
   <g id="PolyCollection_3">
    <path clip-path="url(#pffd448ece1)" d="M 59.20278 179.598656 
L 59.20278 215.540965 
L 62.19889 213.685697 
L 65.195001 211.83999 
L 68.191111 209.992055 
L 71.187221 208.032599 
L 74.183332 206.177803 
L 77.179442 204.379856 
L 80.175552 202.57786 
L 83.171662 200.693211 
L 86.167773 198.822107 
L 89.163883 196.875392 
L 92.159993 195.066355 
L 95.156104 193.188478 
L 98.152214 191.310602 
L 101.148324 189.462871 
L 104.144435 187.684692 
L 107.140545 185.905347 
L 110.136655 184.028404 
L 113.132765 182.301615 
L 116.128876 180.562811 
L 119.124986 178.847511 
L 122.121096 177.191071 
L 125.117207 175.580616 
L 128.113317 173.820396 
L 131.109427 172.224606 
L 134.105538 170.5706 
L 137.101648 168.849614 
L 140.097758 167.198352 
L 143.093868 165.632228 
L 146.089979 164.172134 
L 149.086089 162.646742 
L 152.082199 161.052851 
L 155.07831 159.45676 
L 158.07442 157.914549 
L 161.07053 156.364155 
L 164.066641 154.759483 
L 167.062751 153.155235 
L 170.058861 151.609376 
L 173.054972 150.071015 
L 176.051082 148.532653 
L 179.047192 146.992773 
L 182.043302 145.453003 
L 185.039413 143.954556 
L 188.035523 142.458461 
L 191.031633 140.955922 
L 194.027744 139.443705 
L 197.023854 137.943854 
L 200.019964 136.472919 
L 203.016075 134.953044 
L 206.012185 133.4443 
L 209.008295 131.944449 
L 212.004405 130.444598 
L 215.000516 128.944747 
L 217.996626 127.444895 
L 220.992736 125.98588 
L 223.988847 124.490167 
L 226.984957 122.991232 
L 229.981067 121.519126 
L 232.977178 120.07085 
L 235.973288 118.53628 
L 238.969398 117.08471 
L 241.965508 115.558145 
L 244.961619 114.090589 
L 247.957729 112.652264 
L 250.953839 111.213938 
L 253.94995 109.775588 
L 256.94606 108.337288 
L 259.94217 106.900652 
L 262.938281 105.462542 
L 265.934391 104.022311 
L 268.930501 102.583986 
L 271.926612 101.152712 
L 274.922722 99.714765 
L 277.918832 98.269212 
L 280.914942 96.830684 
L 283.911053 95.393037 
L 286.907163 93.98708 
L 289.903273 92.642522 
L 292.899384 91.264626 
L 295.895494 89.916066 
L 298.891604 88.490398 
L 301.887715 87.176702 
L 304.883825 85.906007 
L 307.879935 84.591864 
L 310.876045 83.249199 
L 313.872156 82.077957 
L 316.868266 80.835433 
L 319.864376 79.637338 
L 322.860487 78.429288 
L 325.856597 77.252732 
L 328.852707 76.030088 
L 331.848818 74.823817 
L 334.844928 73.434635 
L 337.841038 72.177714 
L 340.837148 71.063743 
L 343.833259 69.834549 
L 346.829369 68.547716 
L 349.825479 67.396065 
L 352.82159 66.257469 
L 355.8177 65.118872 
L 355.8177 27.170909 
L 355.8177 27.170909 
L 352.82159 29.086132 
L 349.825479 31.001355 
L 346.829369 32.916578 
L 343.833259 34.831801 
L 340.837148 36.747024 
L 337.841038 38.662247 
L 334.844928 40.57747 
L 331.848818 42.492693 
L 328.852707 44.407917 
L 325.856597 46.32314 
L 322.860487 48.238363 
L 319.864376 50.153586 
L 316.868266 52.068809 
L 313.872156 53.984032 
L 310.876045 55.899255 
L 307.879935 57.815062 
L 304.883825 59.731627 
L 301.887715 61.648193 
L 298.891604 63.564758 
L 295.895494 65.481324 
L 292.899384 67.397889 
L 289.903273 69.314455 
L 286.907163 71.23102 
L 283.911053 73.147586 
L 280.914942 75.064151 
L 277.918832 76.980717 
L 274.922722 78.897282 
L 271.926612 80.813848 
L 268.930501 82.711832 
L 265.934391 84.601169 
L 262.938281 86.490506 
L 259.94217 88.379843 
L 256.94606 90.26918 
L 253.94995 92.158517 
L 250.953839 94.047854 
L 247.957729 95.937191 
L 244.961619 97.826528 
L 241.965508 99.715865 
L 238.969398 101.605202 
L 235.973288 103.476651 
L 232.977178 104.840221 
L 229.981067 106.435671 
L 226.984957 108.343452 
L 223.988847 110.251233 
L 220.992736 111.815631 
L 217.996626 113.33477 
L 215.000516 114.879079 
L 212.004405 116.652169 
L 209.008295 118.259329 
L 206.012185 120.075169 
L 203.016075 121.553386 
L 200.019964 123.381811 
L 197.023854 125.293873 
L 194.027744 127.102598 
L 191.031633 128.392672 
L 188.035523 129.603107 
L 185.039413 130.810599 
L 182.043302 131.998307 
L 179.047192 133.183614 
L 176.051082 134.332051 
L 173.054972 135.480488 
L 170.058861 136.628925 
L 167.062751 137.777362 
L 164.066641 138.925799 
L 161.07053 140.076195 
L 158.07442 141.227236 
L 155.07831 142.378277 
L 152.082199 143.555714 
L 149.086089 144.781065 
L 146.089979 146.006416 
L 143.093868 147.231767 
L 140.097758 148.457117 
L 137.101648 149.682468 
L 134.105538 150.907819 
L 131.109427 152.085655 
L 128.113317 153.256005 
L 125.117207 154.426355 
L 122.121096 155.596705 
L 119.124986 156.767055 
L 116.128876 157.937405 
L 113.132765 159.107755 
L 110.136655 160.278105 
L 107.140545 161.448455 
L 104.144435 162.604227 
L 101.148324 163.735309 
L 98.152214 164.866961 
L 95.156104 165.998612 
L 92.159993 167.130264 
L 89.163883 168.261916 
L 86.167773 169.393568 
L 83.171662 170.52522 
L 80.175552 171.656872 
L 77.179442 172.788524 
L 74.183332 173.920176 
L 71.187221 175.051828 
L 68.191111 176.183479 
L 65.195001 177.315131 
L 62.19889 178.446783 
L 59.20278 179.598656 
z
" style="fill:#2ca02c;fill-opacity:0.15;"/>
   </g>
   <g id="matplotlib.axis_1">
    <g id="xtick_1">
     <g id="line2d_1">
      <defs>
       <path d="M 0 0 
L 0 3.5 
" id="m3ff5b0f666" style="stroke:#000000;stroke-width:0.8;"/>
      </defs>
      <g>
       <use style="stroke:#000000;stroke-width:0.8;" x="61.202749" xlink:href="#m3ff5b0f666" y="318.04"/>
      </g>
     </g>
     <g id="text_1">
      <!-- 4000 -->
      <defs>
       <path d="M 37.796875 64.3125 
L 12.890625 25.390625 
L 37.796875 25.390625 
z
M 35.203125 72.90625 
L 47.609375 72.90625 
L 47.609375 25.390625 
L 58.015625 25.390625 
L 58.015625 17.1875 
L 47.609375 17.1875 
L 47.609375 0 
L 37.796875 0 
L 37.796875 17.1875 
L 4.890625 17.1875 
L 4.890625 26.703125 
z
" id="DejaVuSans-52"/>
       <path d="M 31.78125 66.40625 
Q 24.171875 66.40625 20.328125 58.90625 
Q 16.5 51.421875 16.5 36.375 
Q 16.5 21.390625 20.328125 13.890625 
Q 24.171875 6.390625 31.78125 6.390625 
Q 39.453125 6.390625 43.28125 13.890625 
Q 47.125 21.390625 47.125 36.375 
Q 47.125 51.421875 43.28125 58.90625 
Q 39.453125 66.40625 31.78125 66.40625 
z
M 31.78125 74.21875 
Q 44.046875 74.21875 50.515625 64.515625 
Q 56.984375 54.828125 56.984375 36.375 
Q 56.984375 17.96875 50.515625 8.265625 
Q 44.046875 -1.421875 31.78125 -1.421875 
Q 19.53125 -1.421875 13.0625 8.265625 
Q 6.59375 17.96875 6.59375 36.375 
Q 6.59375 54.828125 13.0625 64.515625 
Q 19.53125 74.21875 31.78125 74.21875 
z
" id="DejaVuSans-48"/>
      </defs>
      <g transform="translate(48.477749 332.638438)scale(0.1 -0.1)">
       <use xlink:href="#DejaVuSans-52"/>
       <use x="63.623047" xlink:href="#DejaVuSans-48"/>
       <use x="127.246094" xlink:href="#DejaVuSans-48"/>
       <use x="190.869141" xlink:href="#DejaVuSans-48"/>
      </g>
     </g>
    </g>
    <g id="xtick_2">
     <g id="line2d_2">
      <g>
       <use style="stroke:#000000;stroke-width:0.8;" x="97.779622" xlink:href="#m3ff5b0f666" y="318.04"/>
      </g>
     </g>
     <g id="text_2">
      <!-- 5000 -->
      <defs>
       <path d="M 10.796875 72.90625 
L 49.515625 72.90625 
L 49.515625 64.59375 
L 19.828125 64.59375 
L 19.828125 46.734375 
Q 21.96875 47.46875 24.109375 47.828125 
Q 26.265625 48.1875 28.421875 48.1875 
Q 40.625 48.1875 47.75 41.5 
Q 54.890625 34.8125 54.890625 23.390625 
Q 54.890625 11.625 47.5625 5.09375 
Q 40.234375 -1.421875 26.90625 -1.421875 
Q 22.3125 -1.421875 17.546875 -0.640625 
Q 12.796875 0.140625 7.71875 1.703125 
L 7.71875 11.625 
Q 12.109375 9.234375 16.796875 8.0625 
Q 21.484375 6.890625 26.703125 6.890625 
Q 35.15625 6.890625 40.078125 11.328125 
Q 45.015625 15.765625 45.015625 23.390625 
Q 45.015625 31 40.078125 35.4375 
Q 35.15625 39.890625 26.703125 39.890625 
Q 22.75 39.890625 18.8125 39.015625 
Q 14.890625 38.140625 10.796875 36.28125 
z
" id="DejaVuSans-53"/>
      </defs>
      <g transform="translate(85.054622 332.638438)scale(0.1 -0.1)">
       <use xlink:href="#DejaVuSans-53"/>
       <use x="63.623047" xlink:href="#DejaVuSans-48"/>
       <use x="127.246094" xlink:href="#DejaVuSans-48"/>
       <use x="190.869141" xlink:href="#DejaVuSans-48"/>
      </g>
     </g>
    </g>
    <g id="xtick_3">
     <g id="line2d_3">
      <g>
       <use style="stroke:#000000;stroke-width:0.8;" x="134.356495" xlink:href="#m3ff5b0f666" y="318.04"/>
      </g>
     </g>
     <g id="text_3">
      <!-- 6000 -->
      <defs>
       <path d="M 33.015625 40.375 
Q 26.375 40.375 22.484375 35.828125 
Q 18.609375 31.296875 18.609375 23.390625 
Q 18.609375 15.53125 22.484375 10.953125 
Q 26.375 6.390625 33.015625 6.390625 
Q 39.65625 6.390625 43.53125 10.953125 
Q 47.40625 15.53125 47.40625 23.390625 
Q 47.40625 31.296875 43.53125 35.828125 
Q 39.65625 40.375 33.015625 40.375 
z
M 52.59375 71.296875 
L 52.59375 62.3125 
Q 48.875 64.0625 45.09375 64.984375 
Q 41.3125 65.921875 37.59375 65.921875 
Q 27.828125 65.921875 22.671875 59.328125 
Q 17.53125 52.734375 16.796875 39.40625 
Q 19.671875 43.65625 24.015625 45.921875 
Q 28.375 48.1875 33.59375 48.1875 
Q 44.578125 48.1875 50.953125 41.515625 
Q 57.328125 34.859375 57.328125 23.390625 
Q 57.328125 12.15625 50.6875 5.359375 
Q 44.046875 -1.421875 33.015625 -1.421875 
Q 20.359375 -1.421875 13.671875 8.265625 
Q 6.984375 17.96875 6.984375 36.375 
Q 6.984375 53.65625 15.1875 63.9375 
Q 23.390625 74.21875 37.203125 74.21875 
Q 40.921875 74.21875 44.703125 73.484375 
Q 48.484375 72.75 52.59375 71.296875 
z
" id="DejaVuSans-54"/>
      </defs>
      <g transform="translate(121.631495 332.638438)scale(0.1 -0.1)">
       <use xlink:href="#DejaVuSans-54"/>
       <use x="63.623047" xlink:href="#DejaVuSans-48"/>
       <use x="127.246094" xlink:href="#DejaVuSans-48"/>
       <use x="190.869141" xlink:href="#DejaVuSans-48"/>
      </g>
     </g>
    </g>
    <g id="xtick_4">
     <g id="line2d_4">
      <g>
       <use style="stroke:#000000;stroke-width:0.8;" x="170.933367" xlink:href="#m3ff5b0f666" y="318.04"/>
      </g>
     </g>
     <g id="text_4">
      <!-- 7000 -->
      <defs>
       <path d="M 8.203125 72.90625 
L 55.078125 72.90625 
L 55.078125 68.703125 
L 28.609375 0 
L 18.3125 0 
L 43.21875 64.59375 
L 8.203125 64.59375 
z
" id="DejaVuSans-55"/>
      </defs>
      <g transform="translate(158.208367 332.638438)scale(0.1 -0.1)">
       <use xlink:href="#DejaVuSans-55"/>
       <use x="63.623047" xlink:href="#DejaVuSans-48"/>
       <use x="127.246094" xlink:href="#DejaVuSans-48"/>
       <use x="190.869141" xlink:href="#DejaVuSans-48"/>
      </g>
     </g>
    </g>
    <g id="xtick_5">
     <g id="line2d_5">
      <g>
       <use style="stroke:#000000;stroke-width:0.8;" x="207.51024" xlink:href="#m3ff5b0f666" y="318.04"/>
      </g>
     </g>
     <g id="text_5">
      <!-- 8000 -->
      <defs>
       <path d="M 31.78125 34.625 
Q 24.75 34.625 20.71875 30.859375 
Q 16.703125 27.09375 16.703125 20.515625 
Q 16.703125 13.921875 20.71875 10.15625 
Q 24.75 6.390625 31.78125 6.390625 
Q 38.8125 6.390625 42.859375 10.171875 
Q 46.921875 13.96875 46.921875 20.515625 
Q 46.921875 27.09375 42.890625 30.859375 
Q 38.875 34.625 31.78125 34.625 
z
M 21.921875 38.8125 
Q 15.578125 40.375 12.03125 44.71875 
Q 8.5 49.078125 8.5 55.328125 
Q 8.5 64.0625 14.71875 69.140625 
Q 20.953125 74.21875 31.78125 74.21875 
Q 42.671875 74.21875 48.875 69.140625 
Q 55.078125 64.0625 55.078125 55.328125 
Q 55.078125 49.078125 51.53125 44.71875 
Q 48 40.375 41.703125 38.8125 
Q 48.828125 37.15625 52.796875 32.3125 
Q 56.78125 27.484375 56.78125 20.515625 
Q 56.78125 9.90625 50.3125 4.234375 
Q 43.84375 -1.421875 31.78125 -1.421875 
Q 19.734375 -1.421875 13.25 4.234375 
Q 6.78125 9.90625 6.78125 20.515625 
Q 6.78125 27.484375 10.78125 32.3125 
Q 14.796875 37.15625 21.921875 38.8125 
z
M 18.3125 54.390625 
Q 18.3125 48.734375 21.84375 45.5625 
Q 25.390625 42.390625 31.78125 42.390625 
Q 38.140625 42.390625 41.71875 45.5625 
Q 45.3125 48.734375 45.3125 54.390625 
Q 45.3125 60.0625 41.71875 63.234375 
Q 38.140625 66.40625 31.78125 66.40625 
Q 25.390625 66.40625 21.84375 63.234375 
Q 18.3125 60.0625 18.3125 54.390625 
z
" id="DejaVuSans-56"/>
      </defs>
      <g transform="translate(194.78524 332.638438)scale(0.1 -0.1)">
       <use xlink:href="#DejaVuSans-56"/>
       <use x="63.623047" xlink:href="#DejaVuSans-48"/>
       <use x="127.246094" xlink:href="#DejaVuSans-48"/>
       <use x="190.869141" xlink:href="#DejaVuSans-48"/>
      </g>
     </g>
    </g>
    <g id="xtick_6">
     <g id="line2d_6">
      <g>
       <use style="stroke:#000000;stroke-width:0.8;" x="244.087113" xlink:href="#m3ff5b0f666" y="318.04"/>
      </g>
     </g>
     <g id="text_6">
      <!-- 9000 -->
      <defs>
       <path d="M 10.984375 1.515625 
L 10.984375 10.5 
Q 14.703125 8.734375 18.5 7.8125 
Q 22.3125 6.890625 25.984375 6.890625 
Q 35.75 6.890625 40.890625 13.453125 
Q 46.046875 20.015625 46.78125 33.40625 
Q 43.953125 29.203125 39.59375 26.953125 
Q 35.25 24.703125 29.984375 24.703125 
Q 19.046875 24.703125 12.671875 31.3125 
Q 6.296875 37.9375 6.296875 49.421875 
Q 6.296875 60.640625 12.9375 67.421875 
Q 19.578125 74.21875 30.609375 74.21875 
Q 43.265625 74.21875 49.921875 64.515625 
Q 56.59375 54.828125 56.59375 36.375 
Q 56.59375 19.140625 48.40625 8.859375 
Q 40.234375 -1.421875 26.421875 -1.421875 
Q 22.703125 -1.421875 18.890625 -0.6875 
Q 15.09375 0.046875 10.984375 1.515625 
z
M 30.609375 32.421875 
Q 37.25 32.421875 41.125 36.953125 
Q 45.015625 41.5 45.015625 49.421875 
Q 45.015625 57.28125 41.125 61.84375 
Q 37.25 66.40625 30.609375 66.40625 
Q 23.96875 66.40625 20.09375 61.84375 
Q 16.21875 57.28125 16.21875 49.421875 
Q 16.21875 41.5 20.09375 36.953125 
Q 23.96875 32.421875 30.609375 32.421875 
z
" id="DejaVuSans-57"/>
      </defs>
      <g transform="translate(231.362113 332.638438)scale(0.1 -0.1)">
       <use xlink:href="#DejaVuSans-57"/>
       <use x="63.623047" xlink:href="#DejaVuSans-48"/>
       <use x="127.246094" xlink:href="#DejaVuSans-48"/>
       <use x="190.869141" xlink:href="#DejaVuSans-48"/>
      </g>
     </g>
    </g>
    <g id="xtick_7">
     <g id="line2d_7">
      <g>
       <use style="stroke:#000000;stroke-width:0.8;" x="280.663985" xlink:href="#m3ff5b0f666" y="318.04"/>
      </g>
     </g>
     <g id="text_7">
      <!-- 10000 -->
      <defs>
       <path d="M 12.40625 8.296875 
L 28.515625 8.296875 
L 28.515625 63.921875 
L 10.984375 60.40625 
L 10.984375 69.390625 
L 28.421875 72.90625 
L 38.28125 72.90625 
L 38.28125 8.296875 
L 54.390625 8.296875 
L 54.390625 0 
L 12.40625 0 
z
" id="DejaVuSans-49"/>
      </defs>
      <g transform="translate(264.757735 332.638438)scale(0.1 -0.1)">
       <use xlink:href="#DejaVuSans-49"/>
       <use x="63.623047" xlink:href="#DejaVuSans-48"/>
       <use x="127.246094" xlink:href="#DejaVuSans-48"/>
       <use x="190.869141" xlink:href="#DejaVuSans-48"/>
       <use x="254.492188" xlink:href="#DejaVuSans-48"/>
      </g>
     </g>
    </g>
    <g id="xtick_8">
     <g id="line2d_8">
      <g>
       <use style="stroke:#000000;stroke-width:0.8;" x="317.240858" xlink:href="#m3ff5b0f666" y="318.04"/>
      </g>
     </g>
     <g id="text_8">
      <!-- 11000 -->
      <g transform="translate(301.334608 332.638438)scale(0.1 -0.1)">
       <use xlink:href="#DejaVuSans-49"/>
       <use x="63.623047" xlink:href="#DejaVuSans-49"/>
       <use x="127.246094" xlink:href="#DejaVuSans-48"/>
       <use x="190.869141" xlink:href="#DejaVuSans-48"/>
       <use x="254.492188" xlink:href="#DejaVuSans-48"/>
      </g>
     </g>
    </g>
    <g id="xtick_9">
     <g id="line2d_9">
      <g>
       <use style="stroke:#000000;stroke-width:0.8;" x="353.817731" xlink:href="#m3ff5b0f666" y="318.04"/>
      </g>
     </g>
     <g id="text_9">
      <!-- 12000 -->
      <defs>
       <path d="M 19.1875 8.296875 
L 53.609375 8.296875 
L 53.609375 0 
L 7.328125 0 
L 7.328125 8.296875 
Q 12.9375 14.109375 22.625 23.890625 
Q 32.328125 33.6875 34.8125 36.53125 
Q 39.546875 41.84375 41.421875 45.53125 
Q 43.3125 49.21875 43.3125 52.78125 
Q 43.3125 58.59375 39.234375 62.25 
Q 35.15625 65.921875 28.609375 65.921875 
Q 23.96875 65.921875 18.8125 64.3125 
Q 13.671875 62.703125 7.8125 59.421875 
L 7.8125 69.390625 
Q 13.765625 71.78125 18.9375 73 
Q 24.125 74.21875 28.421875 74.21875 
Q 39.75 74.21875 46.484375 68.546875 
Q 53.21875 62.890625 53.21875 53.421875 
Q 53.21875 48.921875 51.53125 44.890625 
Q 49.859375 40.875 45.40625 35.40625 
Q 44.1875 33.984375 37.640625 27.21875 
Q 31.109375 20.453125 19.1875 8.296875 
z
" id="DejaVuSans-50"/>
      </defs>
      <g transform="translate(337.911481 332.638438)scale(0.1 -0.1)">
       <use xlink:href="#DejaVuSans-49"/>
       <use x="63.623047" xlink:href="#DejaVuSans-50"/>
       <use x="127.246094" xlink:href="#DejaVuSans-48"/>
       <use x="190.869141" xlink:href="#DejaVuSans-48"/>
       <use x="254.492188" xlink:href="#DejaVuSans-48"/>
      </g>
     </g>
    </g>
    <g id="text_10">
     <!-- Exposure -->
     <defs>
      <path d="M 9.8125 72.90625 
L 55.90625 72.90625 
L 55.90625 64.59375 
L 19.671875 64.59375 
L 19.671875 43.015625 
L 54.390625 43.015625 
L 54.390625 34.71875 
L 19.671875 34.71875 
L 19.671875 8.296875 
L 56.78125 8.296875 
L 56.78125 0 
L 9.8125 0 
z
" id="DejaVuSans-69"/>
      <path d="M 54.890625 54.6875 
L 35.109375 28.078125 
L 55.90625 0 
L 45.3125 0 
L 29.390625 21.484375 
L 13.484375 0 
L 2.875 0 
L 24.125 28.609375 
L 4.6875 54.6875 
L 15.28125 54.6875 
L 29.78125 35.203125 
L 44.28125 54.6875 
z
" id="DejaVuSans-120"/>
      <path d="M 18.109375 8.203125 
L 18.109375 -20.796875 
L 9.078125 -20.796875 
L 9.078125 54.6875 
L 18.109375 54.6875 
L 18.109375 46.390625 
Q 20.953125 51.265625 25.265625 53.625 
Q 29.59375 56 35.59375 56 
Q 45.5625 56 51.78125 48.09375 
Q 58.015625 40.1875 58.015625 27.296875 
Q 58.015625 14.40625 51.78125 6.484375 
Q 45.5625 -1.421875 35.59375 -1.421875 
Q 29.59375 -1.421875 25.265625 0.953125 
Q 20.953125 3.328125 18.109375 8.203125 
z
M 48.6875 27.296875 
Q 48.6875 37.203125 44.609375 42.84375 
Q 40.53125 48.484375 33.40625 48.484375 
Q 26.265625 48.484375 22.1875 42.84375 
Q 18.109375 37.203125 18.109375 27.296875 
Q 18.109375 17.390625 22.1875 11.75 
Q 26.265625 6.109375 33.40625 6.109375 
Q 40.53125 6.109375 44.609375 11.75 
Q 48.6875 17.390625 48.6875 27.296875 
z
" id="DejaVuSans-112"/>
      <path d="M 30.609375 48.390625 
Q 23.390625 48.390625 19.1875 42.75 
Q 14.984375 37.109375 14.984375 27.296875 
Q 14.984375 17.484375 19.15625 11.84375 
Q 23.34375 6.203125 30.609375 6.203125 
Q 37.796875 6.203125 41.984375 11.859375 
Q 46.1875 17.53125 46.1875 27.296875 
Q 46.1875 37.015625 41.984375 42.703125 
Q 37.796875 48.390625 30.609375 48.390625 
z
M 30.609375 56 
Q 42.328125 56 49.015625 48.375 
Q 55.71875 40.765625 55.71875 27.296875 
Q 55.71875 13.875 49.015625 6.21875 
Q 42.328125 -1.421875 30.609375 -1.421875 
Q 18.84375 -1.421875 12.171875 6.21875 
Q 5.515625 13.875 5.515625 27.296875 
Q 5.515625 40.765625 12.171875 48.375 
Q 18.84375 56 30.609375 56 
z
" id="DejaVuSans-111"/>
      <path d="M 44.28125 53.078125 
L 44.28125 44.578125 
Q 40.484375 46.53125 36.375 47.5 
Q 32.28125 48.484375 27.875 48.484375 
Q 21.1875 48.484375 17.84375 46.4375 
Q 14.5 44.390625 14.5 40.28125 
Q 14.5 37.15625 16.890625 35.375 
Q 19.28125 33.59375 26.515625 31.984375 
L 29.59375 31.296875 
Q 39.15625 29.25 43.1875 25.515625 
Q 47.21875 21.78125 47.21875 15.09375 
Q 47.21875 7.46875 41.1875 3.015625 
Q 35.15625 -1.421875 24.609375 -1.421875 
Q 20.21875 -1.421875 15.453125 -0.5625 
Q 10.6875 0.296875 5.421875 2 
L 5.421875 11.28125 
Q 10.40625 8.6875 15.234375 7.390625 
Q 20.0625 6.109375 24.8125 6.109375 
Q 31.15625 6.109375 34.5625 8.28125 
Q 37.984375 10.453125 37.984375 14.40625 
Q 37.984375 18.0625 35.515625 20.015625 
Q 33.0625 21.96875 24.703125 23.78125 
L 21.578125 24.515625 
Q 13.234375 26.265625 9.515625 29.90625 
Q 5.8125 33.546875 5.8125 39.890625 
Q 5.8125 47.609375 11.28125 51.796875 
Q 16.75 56 26.8125 56 
Q 31.78125 56 36.171875 55.265625 
Q 40.578125 54.546875 44.28125 53.078125 
z
" id="DejaVuSans-115"/>
      <path d="M 8.5 21.578125 
L 8.5 54.6875 
L 17.484375 54.6875 
L 17.484375 21.921875 
Q 17.484375 14.15625 20.5 10.265625 
Q 23.53125 6.390625 29.59375 6.390625 
Q 36.859375 6.390625 41.078125 11.03125 
Q 45.3125 15.671875 45.3125 23.6875 
L 45.3125 54.6875 
L 54.296875 54.6875 
L 54.296875 0 
L 45.3125 0 
L 45.3125 8.40625 
Q 42.046875 3.421875 37.71875 1 
Q 33.40625 -1.421875 27.6875 -1.421875 
Q 18.265625 -1.421875 13.375 4.4375 
Q 8.5 10.296875 8.5 21.578125 
z
M 31.109375 56 
z
" id="DejaVuSans-117"/>
      <path d="M 41.109375 46.296875 
Q 39.59375 47.171875 37.8125 47.578125 
Q 36.03125 48 33.890625 48 
Q 26.265625 48 22.1875 43.046875 
Q 18.109375 38.09375 18.109375 28.8125 
L 18.109375 0 
L 9.078125 0 
L 9.078125 54.6875 
L 18.109375 54.6875 
L 18.109375 46.1875 
Q 20.953125 51.171875 25.484375 53.578125 
Q 30.03125 56 36.53125 56 
Q 37.453125 56 38.578125 55.875 
Q 39.703125 55.765625 41.0625 55.515625 
z
" id="DejaVuSans-114"/>
      <path d="M 56.203125 29.59375 
L 56.203125 25.203125 
L 14.890625 25.203125 
Q 15.484375 15.921875 20.484375 11.0625 
Q 25.484375 6.203125 34.421875 6.203125 
Q 39.59375 6.203125 44.453125 7.46875 
Q 49.3125 8.734375 54.109375 11.28125 
L 54.109375 2.78125 
Q 49.265625 0.734375 44.1875 -0.34375 
Q 39.109375 -1.421875 33.890625 -1.421875 
Q 20.796875 -1.421875 13.15625 6.1875 
Q 5.515625 13.8125 5.515625 26.8125 
Q 5.515625 40.234375 12.765625 48.109375 
Q 20.015625 56 32.328125 56 
Q 43.359375 56 49.78125 48.890625 
Q 56.203125 41.796875 56.203125 29.59375 
z
M 47.21875 32.234375 
Q 47.125 39.59375 43.09375 43.984375 
Q 39.0625 48.390625 32.421875 48.390625 
Q 24.90625 48.390625 20.390625 44.140625 
Q 15.875 39.890625 15.1875 32.171875 
z
" id="DejaVuSans-101"/>
     </defs>
     <g transform="translate(184.25399 346.316563)scale(0.1 -0.1)">
      <use xlink:href="#DejaVuSans-69"/>
      <use x="63.183594" xlink:href="#DejaVuSans-120"/>
      <use x="122.363281" xlink:href="#DejaVuSans-112"/>
      <use x="185.839844" xlink:href="#DejaVuSans-111"/>
      <use x="247.021484" xlink:href="#DejaVuSans-115"/>
      <use x="299.121094" xlink:href="#DejaVuSans-117"/>
      <use x="362.5" xlink:href="#DejaVuSans-114"/>
      <use x="403.582031" xlink:href="#DejaVuSans-101"/>
     </g>
    </g>
   </g>
   <g id="matplotlib.axis_2">
    <g id="ytick_1">
     <g id="line2d_10">
      <defs>
       <path d="M 0 0 
L -3.5 0 
" id="ma88e4ae59b" style="stroke:#000000;stroke-width:0.8;"/>
      </defs>
      <g>
       <use style="stroke:#000000;stroke-width:0.8;" x="59.20278" xlink:href="#ma88e4ae59b" y="279.493341"/>
      </g>
     </g>
     <g id="text_11">
      <!-- 100 -->
      <g transform="translate(33.11528 283.292559)scale(0.1 -0.1)">
       <use xlink:href="#DejaVuSans-49"/>
       <use x="63.623047" xlink:href="#DejaVuSans-48"/>
       <use x="127.246094" xlink:href="#DejaVuSans-48"/>
      </g>
     </g>
    </g>
    <g id="ytick_2">
     <g id="line2d_11">
      <g>
       <use style="stroke:#000000;stroke-width:0.8;" x="59.20278" xlink:href="#ma88e4ae59b" y="234.036277"/>
      </g>
     </g>
     <g id="text_12">
      <!-- 110 -->
      <g transform="translate(33.11528 237.835496)scale(0.1 -0.1)">
       <use xlink:href="#DejaVuSans-49"/>
       <use x="63.623047" xlink:href="#DejaVuSans-49"/>
       <use x="127.246094" xlink:href="#DejaVuSans-48"/>
      </g>
     </g>
    </g>
    <g id="ytick_3">
     <g id="line2d_12">
      <g>
       <use style="stroke:#000000;stroke-width:0.8;" x="59.20278" xlink:href="#ma88e4ae59b" y="188.579214"/>
      </g>
     </g>
     <g id="text_13">
      <!-- 120 -->
      <g transform="translate(33.11528 192.378432)scale(0.1 -0.1)">
       <use xlink:href="#DejaVuSans-49"/>
       <use x="63.623047" xlink:href="#DejaVuSans-50"/>
       <use x="127.246094" xlink:href="#DejaVuSans-48"/>
      </g>
     </g>
    </g>
    <g id="ytick_4">
     <g id="line2d_13">
      <g>
       <use style="stroke:#000000;stroke-width:0.8;" x="59.20278" xlink:href="#ma88e4ae59b" y="143.12215"/>
      </g>
     </g>
     <g id="text_14">
      <!-- 130 -->
      <defs>
       <path d="M 40.578125 39.3125 
Q 47.65625 37.796875 51.625 33 
Q 55.609375 28.21875 55.609375 21.1875 
Q 55.609375 10.40625 48.1875 4.484375 
Q 40.765625 -1.421875 27.09375 -1.421875 
Q 22.515625 -1.421875 17.65625 -0.515625 
Q 12.796875 0.390625 7.625 2.203125 
L 7.625 11.71875 
Q 11.71875 9.328125 16.59375 8.109375 
Q 21.484375 6.890625 26.8125 6.890625 
Q 36.078125 6.890625 40.9375 10.546875 
Q 45.796875 14.203125 45.796875 21.1875 
Q 45.796875 27.640625 41.28125 31.265625 
Q 36.765625 34.90625 28.71875 34.90625 
L 20.21875 34.90625 
L 20.21875 43.015625 
L 29.109375 43.015625 
Q 36.375 43.015625 40.234375 45.921875 
Q 44.09375 48.828125 44.09375 54.296875 
Q 44.09375 59.90625 40.109375 62.90625 
Q 36.140625 65.921875 28.71875 65.921875 
Q 24.65625 65.921875 20.015625 65.03125 
Q 15.375 64.15625 9.8125 62.3125 
L 9.8125 71.09375 
Q 15.4375 72.65625 20.34375 73.4375 
Q 25.25 74.21875 29.59375 74.21875 
Q 40.828125 74.21875 47.359375 69.109375 
Q 53.90625 64.015625 53.90625 55.328125 
Q 53.90625 49.265625 50.4375 45.09375 
Q 46.96875 40.921875 40.578125 39.3125 
z
" id="DejaVuSans-51"/>
      </defs>
      <g transform="translate(33.11528 146.921369)scale(0.1 -0.1)">
       <use xlink:href="#DejaVuSans-49"/>
       <use x="63.623047" xlink:href="#DejaVuSans-51"/>
       <use x="127.246094" xlink:href="#DejaVuSans-48"/>
      </g>
     </g>
    </g>
    <g id="ytick_5">
     <g id="line2d_14">
      <g>
       <use style="stroke:#000000;stroke-width:0.8;" x="59.20278" xlink:href="#ma88e4ae59b" y="97.665087"/>
      </g>
     </g>
     <g id="text_15">
      <!-- 140 -->
      <g transform="translate(33.11528 101.464305)scale(0.1 -0.1)">
       <use xlink:href="#DejaVuSans-49"/>
       <use x="63.623047" xlink:href="#DejaVuSans-52"/>
       <use x="127.246094" xlink:href="#DejaVuSans-48"/>
      </g>
     </g>
    </g>
    <g id="ytick_6">
     <g id="line2d_15">
      <g>
       <use style="stroke:#000000;stroke-width:0.8;" x="59.20278" xlink:href="#ma88e4ae59b" y="52.208023"/>
      </g>
     </g>
     <g id="text_16">
      <!-- 150 -->
      <g transform="translate(33.11528 56.007242)scale(0.1 -0.1)">
       <use xlink:href="#DejaVuSans-49"/>
       <use x="63.623047" xlink:href="#DejaVuSans-53"/>
       <use x="127.246094" xlink:href="#DejaVuSans-48"/>
      </g>
     </g>
    </g>
    <g id="text_17">
     <!-- Value -->
     <defs>
      <path d="M 28.609375 0 
L 0.78125 72.90625 
L 11.078125 72.90625 
L 34.1875 11.53125 
L 57.328125 72.90625 
L 67.578125 72.90625 
L 39.796875 0 
z
" id="DejaVuSans-86"/>
      <path d="M 34.28125 27.484375 
Q 23.390625 27.484375 19.1875 25 
Q 14.984375 22.515625 14.984375 16.5 
Q 14.984375 11.71875 18.140625 8.90625 
Q 21.296875 6.109375 26.703125 6.109375 
Q 34.1875 6.109375 38.703125 11.40625 
Q 43.21875 16.703125 43.21875 25.484375 
L 43.21875 27.484375 
z
M 52.203125 31.203125 
L 52.203125 0 
L 43.21875 0 
L 43.21875 8.296875 
Q 40.140625 3.328125 35.546875 0.953125 
Q 30.953125 -1.421875 24.3125 -1.421875 
Q 15.921875 -1.421875 10.953125 3.296875 
Q 6 8.015625 6 15.921875 
Q 6 25.140625 12.171875 29.828125 
Q 18.359375 34.515625 30.609375 34.515625 
L 43.21875 34.515625 
L 43.21875 35.40625 
Q 43.21875 41.609375 39.140625 45 
Q 35.0625 48.390625 27.6875 48.390625 
Q 23 48.390625 18.546875 47.265625 
Q 14.109375 46.140625 10.015625 43.890625 
L 10.015625 52.203125 
Q 14.9375 54.109375 19.578125 55.046875 
Q 24.21875 56 28.609375 56 
Q 40.484375 56 46.34375 49.84375 
Q 52.203125 43.703125 52.203125 31.203125 
z
" id="DejaVuSans-97"/>
      <path d="M 9.421875 75.984375 
L 18.40625 75.984375 
L 18.40625 0 
L 9.421875 0 
z
" id="DejaVuSans-108"/>
     </defs>
     <g transform="translate(27.035592 179.793281)rotate(-90)scale(0.1 -0.1)">
      <use xlink:href="#DejaVuSans-86"/>
      <use x="68.298828" xlink:href="#DejaVuSans-97"/>
      <use x="129.578125" xlink:href="#DejaVuSans-108"/>
      <use x="157.361328" xlink:href="#DejaVuSans-117"/>
      <use x="220.740234" xlink:href="#DejaVuSans-101"/>
     </g>
    </g>
   </g>
   <g id="line2d_16">
    <path clip-path="url(#pffd448ece1)" d="M 84.942091 300.102293 
L 87.418215 299.167917 
L 89.89434 298.233541 
L 92.370464 297.299165 
L 94.846588 296.364789 
L 97.322712 295.430413 
L 99.798837 294.496037 
L 102.274961 293.561661 
L 104.751085 292.627286 
L 107.227209 291.69291 
L 109.703333 290.758534 
L 112.179458 289.824158 
L 114.655582 288.889782 
L 117.131706 287.955406 
L 119.60783 287.02103 
L 122.083955 286.086654 
L 124.560079 285.152278 
L 127.036203 284.217903 
L 129.512327 283.283527 
L 131.988451 282.349151 
L 134.464576 281.414775 
L 136.9407 280.480399 
L 139.416824 279.546023 
L 141.892948 278.611647 
L 144.369072 277.677271 
L 146.845197 276.742896 
L 149.321321 275.80852 
L 151.797445 274.874144 
L 154.273569 273.939768 
L 156.749694 273.005392 
L 159.225818 272.071016 
L 161.701942 271.13664 
L 164.178066 270.202264 
L 166.65419 269.267888 
L 169.130315 268.333513 
L 171.606439 267.399137 
L 174.082563 266.464761 
L 176.558687 265.530385 
L 179.034812 264.596009 
L 181.510936 263.661633 
L 183.98706 262.727257 
L 186.463184 261.792881 
L 188.939308 260.858506 
L 191.415433 259.92413 
L 193.891557 258.989754 
L 196.367681 258.055378 
L 198.843805 257.121002 
L 201.319929 256.186626 
L 203.796054 255.25225 
L 206.272178 254.317874 
L 208.748302 253.383498 
L 211.224426 252.449123 
L 213.700551 251.514747 
L 216.176675 250.580371 
L 218.652799 249.645995 
L 221.128923 248.711619 
L 223.605047 247.777243 
L 226.081172 246.842867 
L 228.557296 245.908491 
L 231.03342 244.974116 
L 233.509544 244.03974 
L 235.985668 243.105364 
L 238.461793 242.170988 
L 240.937917 241.236612 
L 243.414041 240.302236 
L 245.890165 239.36786 
L 248.36629 238.433484 
L 250.842414 237.499108 
L 253.318538 236.564733 
L 255.794662 235.630357 
L 258.270786 234.695981 
L 260.746911 233.761605 
L 263.223035 232.827229 
L 265.699159 231.892853 
L 268.175283 230.958477 
L 270.651408 230.024101 
L 273.127532 229.089726 
L 275.603656 228.15535 
L 278.07978 227.220974 
L 280.555904 226.286598 
L 283.032029 225.352222 
L 285.508153 224.417846 
L 287.984277 223.48347 
L 290.460401 222.549094 
L 292.936525 221.614718 
L 295.41265 220.680343 
L 297.888774 219.745967 
L 300.364898 218.811591 
L 302.841022 217.877215 
L 305.317147 216.942839 
L 307.793271 216.008463 
L 310.269395 215.074087 
L 312.745519 214.139711 
L 315.221643 213.205336 
L 317.697768 212.27096 
L 320.173892 211.336584 
L 322.650016 210.402208 
L 325.12614 209.467832 
L 327.602265 208.533456 
L 330.078389 207.59908 
" style="fill:none;stroke:#1f77b4;stroke-linecap:square;stroke-width:2.25;"/>
   </g>
   <g id="line2d_17">
    <path clip-path="url(#pffd448ece1)" d="M 72.685276 257.917808 
L 75.409013 256.645987 
L 78.13275 255.374167 
L 80.856486 254.102346 
L 83.580223 252.830525 
L 86.30396 251.558705 
L 89.027696 250.286884 
L 91.751433 249.015063 
L 94.475169 247.743243 
L 97.198906 246.471422 
L 99.922643 245.199601 
L 102.646379 243.927781 
L 105.370116 242.65596 
L 108.093853 241.384139 
L 110.817589 240.112318 
L 113.541326 238.840498 
L 116.265063 237.568677 
L 118.988799 236.296856 
L 121.712536 235.025036 
L 124.436273 233.753215 
L 127.160009 232.481394 
L 129.883746 231.209574 
L 132.607482 229.937753 
L 135.331219 228.665932 
L 138.054956 227.394112 
L 140.778692 226.122291 
L 143.502429 224.85047 
L 146.226166 223.57865 
L 148.949902 222.306829 
L 151.673639 221.035008 
L 154.397376 219.763187 
L 157.121112 218.491367 
L 159.844849 217.219546 
L 162.568585 215.947725 
L 165.292322 214.675905 
L 168.016059 213.404084 
L 170.739795 212.132263 
L 173.463532 210.860443 
L 176.187269 209.588622 
L 178.911005 208.316801 
L 181.634742 207.044981 
L 184.358479 205.77316 
L 187.082215 204.501339 
L 189.805952 203.229519 
L 192.529688 201.957698 
L 195.253425 200.685877 
L 197.977162 199.414057 
L 200.700898 198.142236 
L 203.424635 196.870415 
L 206.148372 195.598594 
L 208.872108 194.326774 
L 211.595845 193.054953 
L 214.319582 191.783132 
L 217.043318 190.511312 
L 219.767055 189.239491 
L 222.490792 187.96767 
L 225.214528 186.69585 
L 227.938265 185.424029 
L 230.662001 184.152208 
L 233.385738 182.880388 
L 236.109475 181.608567 
L 238.833211 180.336746 
L 241.556948 179.064926 
L 244.280685 177.793105 
L 247.004421 176.521284 
L 249.728158 175.249463 
L 252.451895 173.977643 
L 255.175631 172.705822 
L 257.899368 171.434001 
L 260.623104 170.162181 
L 263.346841 168.89036 
L 266.070578 167.618539 
L 268.794314 166.346719 
L 271.518051 165.074898 
L 274.241788 163.803077 
L 276.965524 162.531257 
L 279.689261 161.259436 
L 282.412998 159.987615 
L 285.136734 158.715795 
L 287.860471 157.443974 
L 290.584207 156.172153 
L 293.307944 154.900332 
L 296.031681 153.628512 
L 298.755417 152.356691 
L 301.479154 151.08487 
L 304.202891 149.81305 
L 306.926627 148.541229 
L 309.650364 147.269408 
L 312.374101 145.997588 
L 315.097837 144.725767 
L 317.821574 143.453946 
L 320.545311 142.182126 
L 323.269047 140.910305 
L 325.992784 139.638484 
L 328.71652 138.366664 
L 331.440257 137.094843 
L 334.163994 135.823022 
L 336.88773 134.551201 
L 339.611467 133.279381 
L 342.335204 132.00756 
" style="fill:none;stroke:#ff7f0e;stroke-linecap:square;stroke-width:2.25;"/>
   </g>
   <g id="line2d_18">
    <path clip-path="url(#pffd448ece1)" d="M 59.20278 203.538844 
L 62.19889 202.009013 
L 65.195001 200.479182 
L 68.191111 198.949351 
L 71.187221 197.41952 
L 74.183332 195.889689 
L 77.179442 194.359858 
L 80.175552 192.830027 
L 83.171662 191.300196 
L 86.167773 189.770365 
L 89.163883 188.240534 
L 92.159993 186.710703 
L 95.156104 185.180872 
L 98.152214 183.651041 
L 101.148324 182.12121 
L 104.144435 180.591379 
L 107.140545 179.061548 
L 110.136655 177.531717 
L 113.132765 176.001886 
L 116.128876 174.472055 
L 119.124986 172.942225 
L 122.121096 171.412394 
L 125.117207 169.882563 
L 128.113317 168.352732 
L 131.109427 166.822901 
L 134.105538 165.29307 
L 137.101648 163.763239 
L 140.097758 162.233408 
L 143.093868 160.703577 
L 146.089979 159.173746 
L 149.086089 157.643915 
L 152.082199 156.114084 
L 155.07831 154.584253 
L 158.07442 153.054422 
L 161.07053 151.524591 
L 164.066641 149.99476 
L 167.062751 148.464929 
L 170.058861 146.935098 
L 173.054972 145.405267 
L 176.051082 143.875436 
L 179.047192 142.345605 
L 182.043302 140.815774 
L 185.039413 139.285943 
L 188.035523 137.756112 
L 191.031633 136.226281 
L 194.027744 134.69645 
L 197.023854 133.166619 
L 200.019964 131.636788 
L 203.016075 130.106958 
L 206.012185 128.577127 
L 209.008295 127.047296 
L 212.004405 125.517465 
L 215.000516 123.987634 
L 217.996626 122.457803 
L 220.992736 120.927972 
L 223.988847 119.398141 
L 226.984957 117.86831 
L 229.981067 116.338479 
L 232.977178 114.808648 
L 235.973288 113.278817 
L 238.969398 111.748986 
L 241.965508 110.219155 
L 244.961619 108.689324 
L 247.957729 107.159493 
L 250.953839 105.629662 
L 253.94995 104.099831 
L 256.94606 102.57 
L 259.94217 101.040169 
L 262.938281 99.510338 
L 265.934391 97.980507 
L 268.930501 96.450676 
L 271.926612 94.920845 
L 274.922722 93.391014 
L 277.918832 91.861183 
L 280.914942 90.331352 
L 283.911053 88.801522 
L 286.907163 87.271691 
L 289.903273 85.74186 
L 292.899384 84.212029 
L 295.895494 82.682198 
L 298.891604 81.152367 
L 301.887715 79.622536 
L 304.883825 78.092705 
L 307.879935 76.562874 
L 310.876045 75.033043 
L 313.872156 73.503212 
L 316.868266 71.973381 
L 319.864376 70.44355 
L 322.860487 68.913719 
L 325.856597 67.383888 
L 328.852707 65.854057 
L 331.848818 64.324226 
L 334.844928 62.794395 
L 337.841038 61.264564 
L 340.837148 59.734733 
L 343.833259 58.204902 
L 346.829369 56.675071 
L 349.825479 55.14524 
L 352.82159 53.615409 
L 355.8177 52.085578 
" style="fill:none;stroke:#2ca02c;stroke-linecap:square;stroke-width:2.25;"/>
   </g>
   <g id="patch_3">
    <path d="M 59.20278 318.04 
L 59.20278 13.32 
" style="fill:none;stroke:#000000;stroke-linecap:square;stroke-linejoin:miter;stroke-width:0.8;"/>
   </g>
   <g id="patch_4">
    <path d="M 59.20278 318.04 
L 355.8177 318.04 
" style="fill:none;stroke:#000000;stroke-linecap:square;stroke-linejoin:miter;stroke-width:0.8;"/>
   </g>
  </g>
  <g id="text_18">
   <!-- Fixed Gain -->
   <defs>
    <path d="M 9.8125 72.90625 
L 51.703125 72.90625 
L 51.703125 64.59375 
L 19.671875 64.59375 
L 19.671875 43.109375 
L 48.578125 43.109375 
L 48.578125 34.8125 
L 19.671875 34.8125 
L 19.671875 0 
L 9.8125 0 
z
" id="DejaVuSans-70"/>
    <path d="M 9.421875 54.6875 
L 18.40625 54.6875 
L 18.40625 0 
L 9.421875 0 
z
M 9.421875 75.984375 
L 18.40625 75.984375 
L 18.40625 64.59375 
L 9.421875 64.59375 
z
" id="DejaVuSans-105"/>
    <path d="M 45.40625 46.390625 
L 45.40625 75.984375 
L 54.390625 75.984375 
L 54.390625 0 
L 45.40625 0 
L 45.40625 8.203125 
Q 42.578125 3.328125 38.25 0.953125 
Q 33.9375 -1.421875 27.875 -1.421875 
Q 17.96875 -1.421875 11.734375 6.484375 
Q 5.515625 14.40625 5.515625 27.296875 
Q 5.515625 40.1875 11.734375 48.09375 
Q 17.96875 56 27.875 56 
Q 33.9375 56 38.25 53.625 
Q 42.578125 51.265625 45.40625 46.390625 
z
M 14.796875 27.296875 
Q 14.796875 17.390625 18.875 11.75 
Q 22.953125 6.109375 30.078125 6.109375 
Q 37.203125 6.109375 41.296875 11.75 
Q 45.40625 17.390625 45.40625 27.296875 
Q 45.40625 37.203125 41.296875 42.84375 
Q 37.203125 48.484375 30.078125 48.484375 
Q 22.953125 48.484375 18.875 42.84375 
Q 14.796875 37.203125 14.796875 27.296875 
z
" id="DejaVuSans-100"/>
    <path id="DejaVuSans-32"/>
    <path d="M 59.515625 10.40625 
L 59.515625 29.984375 
L 43.40625 29.984375 
L 43.40625 38.09375 
L 69.28125 38.09375 
L 69.28125 6.78125 
Q 63.578125 2.734375 56.6875 0.65625 
Q 49.8125 -1.421875 42 -1.421875 
Q 24.90625 -1.421875 15.25 8.5625 
Q 5.609375 18.5625 5.609375 36.375 
Q 5.609375 54.25 15.25 64.234375 
Q 24.90625 74.21875 42 74.21875 
Q 49.125 74.21875 55.546875 72.453125 
Q 61.96875 70.703125 67.390625 67.28125 
L 67.390625 56.78125 
Q 61.921875 61.421875 55.765625 63.765625 
Q 49.609375 66.109375 42.828125 66.109375 
Q 29.4375 66.109375 22.71875 58.640625 
Q 16.015625 51.171875 16.015625 36.375 
Q 16.015625 21.625 22.71875 14.15625 
Q 29.4375 6.6875 42.828125 6.6875 
Q 48.046875 6.6875 52.140625 7.59375 
Q 56.25 8.5 59.515625 10.40625 
z
" id="DejaVuSans-71"/>
    <path d="M 54.890625 33.015625 
L 54.890625 0 
L 45.90625 0 
L 45.90625 32.71875 
Q 45.90625 40.484375 42.875 44.328125 
Q 39.84375 48.1875 33.796875 48.1875 
Q 26.515625 48.1875 22.3125 43.546875 
Q 18.109375 38.921875 18.109375 30.90625 
L 18.109375 0 
L 9.078125 0 
L 9.078125 54.6875 
L 18.109375 54.6875 
L 18.109375 46.1875 
Q 21.34375 51.125 25.703125 53.5625 
Q 30.078125 56 35.796875 56 
Q 45.21875 56 50.046875 50.171875 
Q 54.890625 44.34375 54.890625 33.015625 
z
" id="DejaVuSans-110"/>
   </defs>
   <g transform="translate(156.010312 22.396875)scale(0.2 -0.2)">
    <use xlink:href="#DejaVuSans-70"/>
    <use x="57.410156" xlink:href="#DejaVuSans-105"/>
    <use x="85.193359" xlink:href="#DejaVuSans-120"/>
    <use x="144.326172" xlink:href="#DejaVuSans-101"/>
    <use x="205.849609" xlink:href="#DejaVuSans-100"/>
    <use x="269.326172" xlink:href="#DejaVuSans-32"/>
    <use x="301.113281" xlink:href="#DejaVuSans-71"/>
    <use x="378.603516" xlink:href="#DejaVuSans-97"/>
    <use x="439.882812" xlink:href="#DejaVuSans-105"/>
    <use x="467.666016" xlink:href="#DejaVuSans-110"/>
   </g>
  </g>
  <g id="legend_1">
   <g id="text_19">
    <!-- Gain -->
    <g transform="translate(372.601094 160.742188)scale(0.1 -0.1)">
     <use xlink:href="#DejaVuSans-71"/>
     <use x="77.490234" xlink:href="#DejaVuSans-97"/>
     <use x="138.769531" xlink:href="#DejaVuSans-105"/>
     <use x="166.552734" xlink:href="#DejaVuSans-110"/>
    </g>
   </g>
   <g id="PathCollection_4">
    <g>
     <use style="fill:#1f77b4;fill-opacity:0.8;stroke:#1f77b4;stroke-opacity:0.8;" x="368.964375" xlink:href="#m407618274c" y="172.795312"/>
    </g>
   </g>
   <g id="text_20">
    <!-- 10.0 -->
    <defs>
     <path d="M 10.6875 12.40625 
L 21 12.40625 
L 21 0 
L 10.6875 0 
z
" id="DejaVuSans-46"/>
    </defs>
    <g transform="translate(386.964375 175.420312)scale(0.1 -0.1)">
     <use xlink:href="#DejaVuSans-49"/>
     <use x="63.623047" xlink:href="#DejaVuSans-48"/>
     <use x="127.246094" xlink:href="#DejaVuSans-46"/>
     <use x="159.033203" xlink:href="#DejaVuSans-48"/>
    </g>
   </g>
   <g id="PathCollection_5">
    <g>
     <use style="fill:#ff7f0e;fill-opacity:0.8;stroke:#ff7f0e;stroke-opacity:0.8;" x="368.964375" xlink:href="#mc8cf56eada" y="187.473437"/>
    </g>
   </g>
   <g id="text_21">
    <!-- 15.0 -->
    <g transform="translate(386.964375 190.098437)scale(0.1 -0.1)">
     <use xlink:href="#DejaVuSans-49"/>
     <use x="63.623047" xlink:href="#DejaVuSans-53"/>
     <use x="127.246094" xlink:href="#DejaVuSans-46"/>
     <use x="159.033203" xlink:href="#DejaVuSans-48"/>
    </g>
   </g>
   <g id="PathCollection_6">
    <g>
     <use style="fill:#2ca02c;fill-opacity:0.8;stroke:#2ca02c;stroke-opacity:0.8;" x="368.964375" xlink:href="#m2e10af0955" y="202.151563"/>
    </g>
   </g>
   <g id="text_22">
    <!-- 20.0 -->
    <g transform="translate(386.964375 204.776563)scale(0.1 -0.1)">
     <use xlink:href="#DejaVuSans-50"/>
     <use x="63.623047" xlink:href="#DejaVuSans-48"/>
     <use x="127.246094" xlink:href="#DejaVuSans-46"/>
     <use x="159.033203" xlink:href="#DejaVuSans-48"/>
    </g>
   </g>
  </g>
 </g>
 <defs>
  <clipPath id="pffd448ece1">
   <rect height="304.72" width="296.61492" x="59.20278" y="13.32"/>
  </clipPath>
 </defs>
</svg>
